<?xml version="1.0" encoding="utf-8"?>
<!-- Generator: Adobe Illustrator 28.3.0, SVG Export Plug-In . SVG Version: 6.00 Build 0)  -->
<svg version="1.1" id="Layer_1" xmlns="http://www.w3.org/2000/svg" xmlns:xlink="http://www.w3.org/1999/xlink" x="0px" y="0px"
	 viewBox="0 0 109 121.7" style="enable-background:new 0 0 109 121.7;" xml:space="preserve">
<style type="text/css">
	.st0{fill:#EBEBEB;}
	.st1{fill:#E0E0E0;}
	.st2{fill:#1B1B1B;}
	.st3{fill:#FFFFFF;}
	.st4{fill:#263238;}
	.st5{fill:#5F4099;}
	.st6{fill:#F1AB1F;}
	.st7{fill:#FBBF9E;}
	.st8{fill:#F7996E;}
	.st9{opacity:0.3;}
	.st10{fill:#455B64;}
	.st11{fill:#606161;}
	.st12{fill:#4C4C4D;}
	.st13{fill:#A36958;}
	.st14{opacity:0.6;}
	.st15{fill:none;stroke:#778189;stroke-miterlimit:10;}
	.st16{fill:#F5F5F5;}
	.st17{fill-rule:evenodd;clip-rule:evenodd;fill:#5F4099;stroke:#5F4099;stroke-miterlimit:10;}
</style>
<g>
	<path class="st5" d="M109,104.2c0-1.5-1.2-2.7-2.7-2.7H25.3c-0.9,0-1.6-0.5-1.9-1.4c-0.3-0.9,0-1.8,0.7-2.3l11.5-8.9h64.7
		c4,0,7.4-3.3,7.5-7.4l0.7-37.1c0.1-3.7-2.7-7-6.4-7.5c-0.7-0.1-1.4,0.1-2,0.5c-0.6,0.4-1,1.1-1.1,1.8c-0.1,0.7,0.1,1.4,0.5,2
		c0.4,0.6,1.1,1,1.8,1.1c1,0.2,1.8,1,1.8,2.1l-0.7,37.2c0,1.1-0.9,2.1-2.1,2.1H36.8L24.6,30.8l7.4,1.1c1.5,0.2,2.9-0.8,3.1-2.3
		c0.2-1.5-0.8-2.9-2.3-3.1l-9.5-1.4l-3.6-13.8c-0.3-1.2-1.4-2-2.6-2H2.7C1.2,9.2,0,10.5,0,11.9s1.2,2.7,2.7,2.7H15l0.2,0.8L31.7,85
		l-10.9,8.4c-3.1,2.4-3.2,5.8-2.4,8.3c0.8,2.5,3.1,5.1,6.9,5.1h11.2l-0.6,1.4c-0.4,0.9-0.6,2.1-0.6,3.4c0,5.6,4.6,10.1,10.2,10.1
		s10.2-4.5,10.2-10.1c0-1.2-0.2-2.4-0.6-3.4l-0.6-1.4h23.2l-0.6,1.4c-0.4,0.9-0.6,2.1-0.6,3.4c0,5.6,4.6,10.1,10.2,10.1
		S97,117.1,97,111.6c0-1.2-0.2-2.4-0.6-3.4l-0.6-1.4h10.5C107.8,106.9,109,105.6,109,104.2z"/>
	<path class="st3" d="M45.6,115.2c-2.1,0-3.8-1.7-3.8-3.7s1.7-3.7,3.8-3.7c2.1,0,3.8,1.7,3.8,3.7S47.6,115.2,45.6,115.2z"/>
	<path class="st3" d="M86.8,115.2c-2.1,0-3.8-1.7-3.8-3.7s1.7-3.7,3.8-3.7c2.1,0,3.8,1.7,3.8,3.7S88.9,115.2,86.8,115.2z"/>
	<path class="st5" d="M66.7,0C52.4,0,40.8,11.6,40.8,25.8s11.6,25.8,25.9,25.8S92.6,40,92.6,25.8S81,0,66.7,0z M66.7,46.2
		c-11.3,0-20.5-9.2-20.5-20.4S55.4,5.4,66.7,5.4s20.5,9.2,20.5,20.4S78,46.2,66.7,46.2z"/>
	<path class="st5" d="M55,27.5l5.9,7.1c0.4,0.5,1.1,0.8,1.9,0.8c0.8,0,1.7-0.3,2.1-0.7l13-13.8c0.5-0.5,0.8-1.2,0.7-1.9
		c0-0.7-0.3-1.4-0.8-1.9c-1.1-1-2.8-1-3.8,0.1L63.1,28.8l-4-4.7c-1-1.1-2.7-1.3-3.8-0.3c-0.6,0.5-0.9,1.1-1,1.8
		C54.3,26.3,54.5,27,55,27.5z"/>
</g>
</svg>
