<?xml version="1.0" encoding="utf-8"?>
<!-- Generator: Adobe Illustrator 28.3.0, SVG Export Plug-In . SVG Version: 6.00 Build 0)  -->
<svg version="1.1" id="Layer_1" xmlns="http://www.w3.org/2000/svg" xmlns:xlink="http://www.w3.org/1999/xlink" x="0px" y="0px"
	 viewBox="0 0 500 500" style="enable-background:new 0 0 500 500;" xml:space="preserve">
<style type="text/css">
	.st0{fill:#EBEBEB;}
	.st1{fill:#E0E0E0;}
	.st2{fill:#1B1B1B;}
	.st3{fill:#FFFFFF;}
	.st4{fill:#263238;}
	.st5{fill:#5F4099;}
	.st6{fill:#F1AB1F;}
	.st7{fill:#FBBF9E;}
	.st8{fill:#F7996E;}
	.st9{opacity:0.3;}
	.st10{fill:#455B64;}
	.st11{fill:#606161;}
</style>
<g>
	<path class="st0" d="M255.6,33.5c-5.6-2.7-11.9-3-15.9-2.4c-3.7,0.6-9.1,2-13.7,5.5c-2.8,2.2-4.9,5-6.2,8.2
		c-1.6,3.8-2,8.3-1.4,13.3c0.1,0.8,0.5,1.4,1.1,1.9c0.6,0.5,1.4,0.7,2.1,0.5l9.8-1.5c1.4-0.2,2.4-1.4,2.4-2.8c0-3.1,1-8.6,8.3-9.8
		c5.6-0.9,8.5,2.7,9.5,4.4c1.6,2.6,1.8,6,0.6,9.1c-1.9,4.7-6.6,6.1-9.2,6.5c-3,0.5-5.1,3.3-4.6,6.3l1.6,10.5
		c0.2,1.5,1.7,2.6,3.2,2.4l9.5-1.4c1.5-0.2,2.6-1.7,2.4-3.2l-0.3-2.2c0-0.1,0-0.1,0.1-0.1c2-1.1,5.9-3.5,9.1-7.9
		c4.1-5.5,5.6-12,4.5-19.4C266.6,40.8,260.4,35.8,255.6,33.5z"/>
	<path class="st0" d="M248.6,87.5l-0.8,0.1c-4,0.6-6.7,4.3-6.1,8.3s4.3,6.7,8.3,6.1l0.8-0.1c4-0.6,6.7-4.3,6.1-8.3
		C256.4,89.6,252.6,86.9,248.6,87.5z"/>
</g>
<g>
	<path class="st0" d="M59.4,203.2c-2.8-3.5-6.8-5.7-9.6-6.6c-2.6-0.8-6.6-1.6-10.7-0.7c-2.5,0.5-4.8,1.7-6.7,3.3
		c-2.2,2-4,4.8-5.2,8.3c-0.2,0.5-0.1,1.1,0.1,1.6c0.3,0.5,0.7,0.9,1.2,1l6.9,2.2c1,0.3,2-0.2,2.5-1.1c1-2.1,3.4-5.3,8.6-3.8
		c3.9,1.2,4.7,4.5,4.8,5.9c0.2,2.2-0.7,4.5-2.5,6.1c-2.8,2.4-6.3,1.8-8.1,1.3c-2.1-0.7-4.4,0.5-5,2.6l-2.3,7.4
		c-0.3,1.1,0.3,2.2,1.3,2.6l6.7,2.1c1.1,0.3,2.2-0.3,2.6-1.3l0.5-1.6c0,0,0-0.1,0.1-0.1c1.7-0.1,5-0.4,8.5-2.2
		c4.4-2.3,7.5-6.1,9.1-11.3C64.3,211.5,61.9,206.3,59.4,203.2z"/>
	<path class="st0" d="M37.7,236.3l-0.6-0.2c-2.8-0.9-5.8,0.7-6.7,3.5s0.7,5.8,3.5,6.7l0.6,0.2c2.8,0.9,5.8-0.7,6.7-3.5
		C42,240.2,40.4,237.2,37.7,236.3z"/>
</g>
<g>
	<g>
		<g>
			<g>
				<path class="st0" d="M355.8,442.8c24.3-1.1,55.2-8.8,74.1-24.7C403.8,418.8,377.5,427.6,355.8,442.8"/>
			</g>
		</g>
	</g>
	<g>
		<g>
			<g>
				<path class="st0" d="M372.7,414c24.3-1.1,55.2-8.8,74.1-24.7C420.8,390,394.4,398.8,372.7,414"/>
			</g>
		</g>
	</g>
	<g>
		<g>
			<g>
				<path class="st0" d="M391,386.6c24.3-1.1,55.2-8.8,74.1-24.7C439,362.6,412.6,371.4,391,386.6"/>
			</g>
		</g>
	</g>
	<g>
		<g>
			<g>
				<path class="st0" d="M411.3,358.3c24.2-4,54.1-15.5,70.8-33.4C456.1,328.8,430.9,340.7,411.3,358.3"/>
			</g>
		</g>
	</g>
	<g>
		<g>
			<g>
				<path class="st0" d="M429.1,337.5c21.5-12.3,45.5-33.3,54.4-55.4C460.2,294.8,440.9,314.5,429.1,337.5"/>
			</g>
		</g>
	</g>
	<g>
		<g>
			<g>
				<path class="st0" d="M420.5,347.3c6.6-24.1,8.7-56.6-1-79.6C411.9,293.4,412.3,321.8,420.5,347.3"/>
			</g>
		</g>
	</g>
	<g>
		<g>
			<g>
				<path class="st0" d="M403.2,370.4c4.7-25.6,3.9-59.5-8.4-82.7C389.3,315.1,392.3,344.5,403.2,370.4"/>
			</g>
		</g>
	</g>
	<g>
		<g>
			<g>
				<path class="st0" d="M382.7,398.7c4.7-25.6,3.9-59.5-8.4-82.7C368.8,343.4,371.8,372.8,382.7,398.7"/>
			</g>
		</g>
	</g>
	<g>
		<g>
			<g>
				<path class="st0" d="M360.8,434.6c4.7-25.6,3.9-59.5-8.4-82.7C346.9,379.2,349.9,408.6,360.8,434.6"/>
			</g>
		</g>
	</g>
	<g>
		<g>
			<g>
				<g>
					<path class="st1" d="M352.5,447.8c-3.5,6.5-6.3,11.8-8.1,15.5c-0.9,1.8-1.6,3.2-2.1,4.3c-0.2,0.5-0.4,0.8-0.5,1.1
						c-0.1,0.3-0.2,0.4-0.2,0.4c0,0,0.1-0.1,0.2-0.4c0.2-0.3,0.4-0.6,0.6-1.1c0.6-1,1.3-2.4,2.3-4.2c1.9-3.7,4.8-8.9,8.4-15.4
						c3.6-6.5,8-14.1,13-22.5c5.1-8.4,10.8-17.5,17-26.9c12.5-18.8,24.8-35.2,33.9-46.8c4.6-5.8,8.3-10.5,10.9-13.7
						c1.3-1.6,2.3-2.8,3-3.7c0.3-0.4,0.6-0.7,0.8-1c0.2-0.2,0.2-0.3,0.2-0.4c0,0-0.1,0.1-0.3,0.3c-0.2,0.2-0.5,0.6-0.8,0.9
						c-0.8,0.9-1.8,2.1-3.1,3.6c-2.7,3.1-6.5,7.7-11.2,13.5c-9.3,11.5-21.6,27.9-34.2,46.7"/>
				</g>
			</g>
		</g>
	</g>
</g>
<g>
	<g>
		<g>
			<g>
				<path class="st0" d="M310.5,279.4c8.9-21.9,14.5-52.3,8.1-75.4C308.6,227.3,305.8,254.1,310.5,279.4"/>
			</g>
		</g>
	</g>
	<g>
		<g>
			<g>
				<path class="st0" d="M291.9,252.9c8.9-21.9,14.5-52.3,8.1-75.4C290,200.7,287.2,227.6,291.9,252.9"/>
			</g>
		</g>
	</g>
	<g>
		<g>
			<g>
				<path class="st0" d="M275,225.7c8.9-21.9,14.5-52.3,8.1-75.4C273.1,173.6,270.3,200.4,275,225.7"/>
			</g>
		</g>
	</g>
	<g>
		<g>
			<g>
				<path class="st0" d="M258.2,196.4c6.2-23,8.1-54-1-76C250.2,144.9,250.5,171.9,258.2,196.4"/>
			</g>
		</g>
	</g>
	<g>
		<g>
			<g>
				<path class="st0" d="M247,172.2c-2.2-24-11.1-53.6-27.1-70.4C221.8,127.5,231.5,152.5,247,172.2"/>
			</g>
		</g>
	</g>
	<g>
		<g>
			<g>
				<path class="st0" d="M252.2,183.8c-18.7-15.6-46.5-30.5-70.8-31.2C201.1,169.6,226.3,180.7,252.2,183.8"/>
			</g>
		</g>
	</g>
	<g>
		<g>
			<g>
				<path class="st0" d="M265.6,208.3c-20.7-14.5-51-27.4-76.4-25.9C211.1,198.3,238.3,207.5,265.6,208.3"/>
			</g>
		</g>
	</g>
	<g>
		<g>
			<g>
				<path class="st0" d="M282.4,237.9c-20.7-14.5-51-27.4-76.4-25.9C227.9,227.8,255,237.1,282.4,237.9"/>
			</g>
		</g>
	</g>
	<g>
		<g>
			<g>
				<path class="st0" d="M305.2,271.7c-20.7-14.5-51-27.4-76.4-25.9C250.7,261.6,277.9,270.8,305.2,271.7"/>
			</g>
		</g>
	</g>
	<g>
		<g>
			<g>
				<g>
					<path class="st1" d="M313.5,284.4c4.3,5.7,7.9,10.3,10.5,13.4c1.2,1.5,2.2,2.7,2.9,3.6c0.3,0.4,0.6,0.7,0.8,0.9
						c0.2,0.2,0.3,0.3,0.3,0.3c0,0-0.1-0.1-0.2-0.4c-0.2-0.3-0.4-0.6-0.7-1c-0.7-0.9-1.6-2.1-2.8-3.7c-2.5-3.2-6-7.8-10.2-13.6
						c-4.3-5.8-9.2-12.7-14.6-20.6c-5.3-7.9-11.1-16.6-16.9-25.9c-11.5-18.6-21.1-36.1-27.7-48.8c-3.3-6.4-5.9-11.6-7.7-15.2
						c-0.9-1.7-1.6-3.1-2.1-4.1c-0.2-0.4-0.4-0.8-0.6-1.1c-0.1-0.2-0.2-0.4-0.2-0.4c0,0,0,0.1,0.1,0.4c0.1,0.3,0.3,0.7,0.5,1.1
						c0.5,1,1.1,2.4,1.9,4.2c1.7,3.7,4.2,8.9,7.4,15.3c6.4,12.9,15.9,30.3,27.5,49"/>
				</g>
			</g>
		</g>
	</g>
</g>
<g>
	<path class="st0" d="M479.9,193.6c-4.1-4.9-9.8-7.8-13.7-8.9c-3.7-1.1-9.3-2-15.1-0.7c-3.6,0.8-6.7,2.5-9.3,4.9
		c-3.1,2.9-5.4,6.8-7,11.8c-0.2,0.7-0.2,1.5,0.2,2.2c0.4,0.7,1,1.2,1.7,1.4l9.7,2.8c1.4,0.4,2.8-0.3,3.4-1.6
		c1.3-2.9,4.6-7.5,11.9-5.6c5.6,1.5,6.7,6.2,6.9,8.1c0.4,3.2-0.9,6.4-3.4,8.7c-3.8,3.5-8.7,2.8-11.4,2.1c-3-0.8-6.1,0.9-7,3.9
		l-3,10.5c-0.4,1.5,0.4,3.1,2,3.6l9.5,2.7c1.5,0.4,3.1-0.4,3.6-2l0.6-2.2c0-0.1,0.1-0.1,0.1-0.1c2.4-0.1,7-0.8,11.8-3.4
		c6.1-3.4,10.3-8.8,12.4-16.2C487.1,205,483.5,197.8,479.9,193.6z"/>
	<path class="st0" d="M450.5,240.8l-0.8-0.2c-4-1.1-8.1,1.2-9.2,5.1c-1.1,4,1.2,8.1,5.1,9.2l0.8,0.2c4,1.1,8.1-1.2,9.2-5.1
		C456.7,246.1,454.4,241.9,450.5,240.8z"/>
</g>
<g>
	<path class="st0" d="M159.4,279.1c-4.7-3.5-10.5-5-14.3-5.2c-3.6-0.2-8.8,0.1-13.7,2.6c-3,1.5-5.5,3.7-7.3,6.4
		c-2.2,3.2-3.5,7.3-3.8,12.1c-0.1,0.7,0.2,1.4,0.7,2c0.5,0.5,1.1,0.9,1.9,0.9l9.3,0.5c1.3,0.1,2.5-0.9,2.8-2.2
		c0.6-2.9,2.5-7.8,9.5-7.5c5.3,0.2,7.3,4.1,7.9,5.8c1,2.8,0.5,6-1.2,8.5c-2.7,4-7.3,4.4-9.8,4.3c-2.9-0.1-5.3,2.1-5.5,4.9l-0.5,10.1
		c-0.1,1.5,1.1,2.7,2.5,2.8l9.1,0.5c1.5,0.1,2.7-1.1,2.8-2.5l0.1-2.1c0-0.1,0-0.1,0.1-0.1c2.1-0.6,6.2-2.2,10-5.6
		c4.8-4.3,7.5-10.1,7.8-17.2C168.3,287.9,163.5,282.2,159.4,279.1z"/>
	<path class="st0" d="M142.8,327.8l-0.8,0c-3.8-0.2-7.1,2.7-7.3,6.6c-0.2,3.8,2.7,7.1,6.6,7.3l0.8,0c3.8,0.2,7.1-2.7,7.3-6.6
		C149.6,331.3,146.6,328,142.8,327.8z"/>
</g>
<g>
	<path class="st0" d="M110.9,457.1h8.6c5.1-18.1,7.5-38.3,4.2-55.1C115.9,418.9,111.6,437.9,110.9,457.1z"/>
	<path class="st0" d="M109.2,373c-10.6,23-14.9,50-12.1,76c0.1,0.2,0.2,0.4,0.3,0.6C107,427.7,114,397,109.2,373z"/>
	<path class="st0" d="M86.4,340.6c-7.8,23.7-9.2,50.3-4.2,75c0.3,0.8,0.6,1.5,1,2.3C90.3,394.7,93.7,363.5,86.4,340.6z"/>
	<path class="st0" d="M71.6,389.2c-0.1-0.3-0.1-0.4-0.1-0.4C71.5,388.8,71.6,388.9,71.6,389.2c0.2,0.3,0.4,0.6,0.6,1.1
		c0.2,0.4,0.3,0.8,0.5,1.3c0.3,0.6,0.7,1.1,1,1.7c-0.7-24.8-7.4-55.8-21.7-74c0.3,25.5,7.5,50.8,20.1,71.5c0-0.1-0.1-0.2-0.1-0.4
		C71.8,389.9,71.7,389.5,71.6,389.2z"/>
	<path class="st0" d="M77.5,405.5c-0.1-0.2-0.1-0.4-0.2-0.6c-16.8-17-42.1-33.6-64.8-35.8C30.1,387.7,53.3,400.6,77.5,405.5z"/>
	<path class="st0" d="M89.3,431.6c-0.1-0.1-0.2-0.2-0.3-0.2c0,0.1,0.1,0.1,0.1,0.2C89.2,431.6,89.3,431.6,89.3,431.6z"/>
	<path class="st0" d="M18.2,400.2c19.6,17.4,44.5,28.5,70.1,31.3c-0.2-0.4-0.4-0.8-0.5-1.2C68.9,414.6,41.7,400.2,18.2,400.2z"/>
	<path class="st0" d="M32.4,431.6c12.9,11.4,28,20.1,44,25.5h19.8C77.8,443.3,53.6,431.6,32.4,431.6z"/>
	<path class="st1" d="M79.7,411c2.2,5.6,4.9,12.1,8,19.2c0.2,0.4,0.4,0.8,0.5,1.2c3.5,8,7.4,16.6,11.8,25.7h1
		c-1.2-2.5-2.4-5-3.6-7.5c-0.1-0.2-0.2-0.4-0.3-0.6c-2.9-6.1-5.5-11.9-8-17.4c0-0.1-0.1-0.1-0.1-0.2c-2.1-4.8-4-9.3-5.8-13.4
		c-0.3-0.8-0.6-1.5-1-2.3c-0.7-1.7-1.4-3.3-2-4.9c-2.8-6.8-4.9-12.3-6.4-16.1c-0.5-1.2-0.9-2.2-1.2-3.1c-0.2-0.5-0.4-0.9-0.5-1.3
		c-0.2-0.5-0.3-0.8-0.5-1.1c-0.1-0.3-0.2-0.4-0.2-0.4c0,0,0,0.1,0.1,0.4c0.1,0.3,0.2,0.7,0.4,1.2c0,0.1,0.1,0.2,0.1,0.4
		c0.4,1.1,0.9,2.4,1.5,4.1c0.9,2.6,2.2,6,3.8,10.1c0.1,0.2,0.1,0.4,0.2,0.6C78.2,407.2,78.9,409.1,79.7,411z"/>
</g>
<g>
	<path class="st2" d="M466.2,456.7c0,0.2-98.7,0.3-220.4,0.3c-121.7,0-220.4-0.1-220.4-0.3c0-0.2,98.7-0.3,220.4-0.3
		C367.5,456.5,466.2,456.6,466.2,456.7z"/>
</g>
<g>
	<g>
		<g>
			
				<ellipse transform="matrix(0.9325 -0.3612 0.3612 0.9325 -34.0608 30.9287)" class="st3" cx="65.7" cy="106.6" rx="32.2" ry="32.2"/>
			<g>
				<path class="st4" d="M97.9,106.6c0,0,0-0.2,0-0.5c0-0.4-0.1-0.9-0.1-1.5c0-0.3,0-0.7-0.1-1.1c0-0.4-0.1-0.9-0.2-1.3
					c-0.1-0.5-0.2-1-0.2-1.6c-0.1-0.6-0.3-1.1-0.4-1.8c-0.6-2.5-1.7-5.4-3.6-8.5c-1.9-3.1-4.5-6.3-8.2-9.1c-0.5-0.3-0.9-0.7-1.4-1
					c-0.5-0.3-1-0.6-1.5-0.9c-0.5-0.3-1-0.7-1.6-0.9c-0.5-0.3-1.1-0.5-1.7-0.8c-0.3-0.1-0.6-0.3-0.8-0.4c-0.3-0.1-0.6-0.2-0.9-0.3
					c-0.6-0.2-1.2-0.4-1.8-0.7c-0.6-0.2-1.3-0.3-1.9-0.5c-0.6-0.1-1.3-0.4-1.9-0.4c-1.3-0.2-2.7-0.5-4.1-0.5c-0.7,0-1.4-0.1-2.1-0.1
					c-0.7,0-1.4,0.1-2.1,0.1c-0.4,0-0.7,0-1.1,0.1l-1.1,0.2c-0.7,0.1-1.4,0.2-2.2,0.4c-1.4,0.4-2.9,0.7-4.3,1.3
					c-1.4,0.5-2.8,1.2-4.2,1.8c-0.7,0.4-1.3,0.8-2,1.2c-0.3,0.2-0.7,0.4-1,0.6l-0.9,0.7c-1.3,0.9-2.4,2-3.6,3.1
					c-0.5,0.6-1.1,1.2-1.6,1.8L41,86.2l-0.4,0.5l-0.7,1l-0.7,1l-0.6,1.1l-0.6,1.1l-0.3,0.5l-0.3,0.6c-0.4,0.7-0.7,1.5-1.1,2.3
					c-0.3,0.8-0.6,1.6-0.9,2.4c-1,3.2-1.6,6.6-1.7,10.1c0,3.5,0.6,6.9,1.6,10.1c0.3,0.8,0.6,1.6,0.9,2.4c0.4,0.8,0.7,1.5,1.1,2.3
					l0.3,0.6l0.3,0.5l0.6,1.1l0.6,1.1l0.7,1l0.7,1L41,127l0.4,0.5c0.5,0.6,1.1,1.2,1.6,1.8c1.2,1.1,2.3,2.2,3.6,3.1l0.9,0.7
					c0.3,0.2,0.7,0.4,1,0.6c0.7,0.4,1.3,0.8,2,1.2c1.4,0.7,2.7,1.4,4.2,1.8c1.4,0.6,2.9,0.9,4.3,1.3c0.7,0.1,1.4,0.2,2.2,0.3
					l1.1,0.2c0.4,0,0.7,0,1.1,0.1c0.7,0,1.4,0.1,2.1,0.1c0.7,0,1.4-0.1,2.1-0.1c1.4,0,2.7-0.3,4.1-0.5c0.7-0.1,1.3-0.3,1.9-0.4
					c0.6-0.2,1.3-0.3,1.9-0.5c0.6-0.2,1.2-0.4,1.8-0.7c0.3-0.1,0.6-0.2,0.9-0.3c0.3-0.1,0.6-0.3,0.8-0.4c0.6-0.3,1.1-0.5,1.7-0.8
					c0.6-0.3,1-0.6,1.6-0.9c0.5-0.3,1-0.6,1.5-0.9c0.5-0.3,0.9-0.7,1.4-1c3.6-2.8,6.3-6,8.2-9.1c1.8-3.1,3-6.1,3.6-8.5
					c0.1-0.6,0.4-1.2,0.4-1.8c0.1-0.6,0.2-1.1,0.2-1.6c0.1-0.5,0.2-0.9,0.2-1.3c0-0.4,0-0.8,0.1-1.1c0-0.7,0.1-1.2,0.1-1.5
					C97.9,106.8,97.9,106.6,97.9,106.6s0,0.2,0,0.5c0,0.4,0,0.9-0.1,1.5c0,0.3,0,0.7,0,1.1c0,0.4-0.1,0.9-0.2,1.4
					c-0.1,0.5-0.1,1-0.2,1.6c-0.1,0.6-0.3,1.1-0.4,1.8c-0.5,2.5-1.7,5.5-3.5,8.6c-1.8,3.1-4.5,6.4-8.2,9.2c-0.5,0.3-0.9,0.7-1.4,1
					c-0.5,0.3-1,0.6-1.5,0.9c-0.5,0.3-1,0.7-1.6,0.9c-0.6,0.3-1.1,0.5-1.7,0.8c-0.3,0.1-0.6,0.3-0.9,0.4c-0.3,0.1-0.6,0.2-0.9,0.3
					c-0.6,0.2-1.2,0.4-1.8,0.7c-0.6,0.2-1.3,0.3-1.9,0.5c-0.6,0.1-1.3,0.4-2,0.4c-1.3,0.2-2.7,0.5-4.1,0.5c-0.7,0-1.4,0.1-2.1,0.1
					c-0.7,0-1.4-0.1-2.1-0.1c-0.4,0-0.7,0-1.1-0.1l-1.1-0.2c-0.7-0.1-1.5-0.2-2.2-0.3c-1.4-0.4-2.9-0.7-4.3-1.3
					c-1.5-0.5-2.8-1.2-4.2-1.9c-0.7-0.4-1.3-0.8-2-1.2c-0.3-0.2-0.7-0.4-1-0.6l-1-0.7c-1.3-0.9-2.5-2-3.7-3.1
					c-0.5-0.6-1.1-1.2-1.6-1.8l-0.4-0.5l-0.4-0.5l-0.7-1l-0.7-1l-0.7-1.1l-0.7-1.1l-0.3-0.5l-0.3-0.6c-0.4-0.8-0.7-1.5-1.1-2.3
					c-0.3-0.8-0.6-1.6-0.9-2.4c-1.1-3.3-1.6-6.7-1.7-10.2c0-3.5,0.6-7,1.7-10.2c0.3-0.8,0.6-1.6,0.9-2.4c0.4-0.8,0.7-1.5,1.1-2.3
					l0.3-0.6l0.3-0.5l0.7-1.1l0.7-1.1l0.7-1l0.7-1l0.4-0.5l0.4-0.5c0.6-0.6,1.1-1.2,1.6-1.8c1.2-1.1,2.4-2.2,3.7-3.1l1-0.7
					c0.3-0.2,0.7-0.4,1-0.6c0.7-0.4,1.3-0.8,2-1.2c1.4-0.7,2.8-1.4,4.2-1.9c1.4-0.6,2.9-0.9,4.3-1.3c0.7-0.1,1.5-0.2,2.2-0.3
					l1.1-0.2c0.4,0,0.7,0,1.1-0.1c0.7,0,1.4-0.1,2.1-0.1c0.7,0,1.4,0.1,2.1,0.1c1.4,0,2.8,0.3,4.1,0.5c0.7,0.1,1.3,0.3,2,0.4
					c0.6,0.2,1.3,0.3,1.9,0.5c0.6,0.2,1.2,0.4,1.8,0.7c0.3,0.1,0.6,0.2,0.9,0.3c0.3,0.1,0.6,0.3,0.9,0.4c0.6,0.3,1.1,0.5,1.7,0.8
					c0.6,0.3,1.1,0.6,1.6,0.9c0.5,0.3,1,0.6,1.5,0.9c0.5,0.4,0.9,0.7,1.4,1c3.7,2.8,6.3,6.1,8.2,9.2c1.8,3.1,3,6.1,3.5,8.6
					c0.1,0.6,0.3,1.2,0.4,1.8c0.1,0.6,0.2,1.1,0.2,1.6c0.1,0.5,0.1,0.9,0.2,1.4c0,0.4,0,0.8,0,1.1c0,0.7,0,1.2,0.1,1.5
					C97.9,106.4,97.9,106.6,97.9,106.6z"/>
			</g>
		</g>
		<g>
			<path class="st5" d="M54.3,101.1h6.1c0,0,0-5.1,5.3-5.2c2.8,0,4.2,1.8,4.8,3.2c0.7,1.6,0.5,3.5-0.4,5c-1,1.7-3.3,3.3-7.4,2.5v9
				h6.1v-3.3c0,0,8.5-2.2,8.5-11.5c0-8.9-8-11-11.5-11C63.1,89.6,54.1,90.3,54.3,101.1z"/>
			<rect x="62.6" y="117.8" class="st5" width="6.1" height="5.7"/>
		</g>
	</g>
	<g>
		<path class="st3" d="M99.4,136.7c0,2.7-2.2,4.9-4.9,4.9s-4.9-2.2-4.9-4.9c0-2.7,2.2-4.9,4.9-4.9S99.4,134,99.4,136.7z"/>
		<g>
			<path class="st4" d="M99.4,136.7c0,0,0-0.4-0.2-1.2c-0.2-0.7-0.7-1.8-1.8-2.6c-1.1-0.8-2.8-1.3-4.5-0.6c-0.8,0.3-1.6,0.9-2.2,1.7
				c-0.6,0.8-0.9,1.8-0.9,2.8c0,1,0.3,2,0.9,2.8c0.6,0.8,1.4,1.4,2.2,1.7c1.7,0.6,3.4,0.2,4.5-0.6c1.1-0.8,1.6-1.9,1.8-2.6
				C99.4,137.2,99.3,136.7,99.4,136.7c0,0,0,0.1,0,0.3c0,0.2,0,0.5-0.1,0.9c-0.2,0.8-0.6,1.9-1.8,2.8c-1.1,0.9-3,1.4-4.8,0.8
				c-0.9-0.3-1.8-0.9-2.4-1.8c-0.6-0.8-1-1.9-1-3c0-1.1,0.4-2.2,1-3c0.6-0.8,1.5-1.5,2.4-1.8c1.8-0.7,3.7-0.1,4.8,0.8
				c1.1,0.9,1.6,2,1.8,2.8c0.1,0.4,0.1,0.7,0.1,0.9C99.4,136.6,99.4,136.7,99.4,136.7z"/>
		</g>
	</g>
</g>
<g>
	<g>
		<g>
			
				<ellipse transform="matrix(0.7071 -0.7071 0.7071 0.7071 62.8729 324.9592)" class="st3" cx="423.7" cy="86.6" rx="33.8" ry="33.8"/>
			<g>
				<path class="st4" d="M457.5,86.6c0,0,0-0.2,0-0.5c0-0.4-0.1-0.9-0.1-1.6c0-0.4,0-0.7-0.1-1.2c0-0.4-0.1-0.9-0.2-1.4
					c-0.1-0.5-0.2-1.1-0.3-1.6c-0.1-0.6-0.3-1.2-0.4-1.8c-0.6-2.6-1.8-5.7-3.7-9c-1.9-3.3-4.8-6.7-8.6-9.6c-0.5-0.4-1-0.7-1.5-1.1
					c-0.5-0.3-1.1-0.6-1.6-1c-0.5-0.3-1.1-0.7-1.6-0.9c-0.6-0.3-1.2-0.6-1.7-0.8c-0.3-0.1-0.6-0.3-0.9-0.4c-0.3-0.1-0.6-0.2-0.9-0.3
					c-0.6-0.2-1.3-0.5-1.9-0.7c-0.6-0.2-1.3-0.3-2-0.5c-0.7-0.2-1.3-0.4-2-0.5c-1.4-0.2-2.8-0.5-4.3-0.5c-0.7,0-1.5-0.1-2.2-0.1
					c-0.7,0-1.5,0.1-2.2,0.1c-0.4,0-0.8,0-1.1,0.1l-1.1,0.2c-0.7,0.1-1.5,0.2-2.3,0.4c-1.5,0.4-3,0.7-4.5,1.3
					c-1.5,0.5-2.9,1.2-4.4,1.9c-0.7,0.4-1.4,0.8-2.1,1.3c-0.3,0.2-0.7,0.4-1,0.7l-1,0.7c-1.4,0.9-2.6,2.1-3.8,3.2
					c-0.6,0.6-1.1,1.3-1.7,1.9l-0.4,0.5l-0.4,0.5l-0.8,1l-0.8,1l-0.7,1.1l-0.7,1.1l-0.3,0.6l-0.3,0.6c-0.4,0.8-0.8,1.6-1.1,2.4
					c-0.3,0.8-0.6,1.7-0.9,2.5c-1.1,3.4-1.7,7-1.7,10.6c0,3.7,0.6,7.2,1.7,10.6c0.3,0.8,0.6,1.7,0.9,2.5c0.4,0.8,0.8,1.6,1.1,2.4
					l0.3,0.6l0.3,0.6l0.7,1.1l0.7,1.1l0.8,1l0.8,1l0.4,0.5l0.4,0.5c0.6,0.6,1.1,1.3,1.7,1.9c1.3,1.1,2.4,2.3,3.8,3.2l1,0.7
					c0.3,0.2,0.7,0.4,1,0.7c0.7,0.4,1.4,0.9,2.1,1.3c1.5,0.7,2.9,1.4,4.4,1.9c1.5,0.6,3,0.9,4.5,1.3c0.8,0.2,1.5,0.2,2.3,0.4
					l1.1,0.2c0.4,0,0.8,0,1.1,0.1c0.7,0,1.5,0.1,2.2,0.1c0.7,0,1.5-0.1,2.2-0.1c1.5,0,2.9-0.3,4.3-0.5c0.7-0.1,1.4-0.3,2-0.5
					c0.7-0.2,1.3-0.3,2-0.5c0.6-0.2,1.3-0.5,1.9-0.7c0.3-0.1,0.6-0.2,0.9-0.3c0.3-0.1,0.6-0.3,0.9-0.4c0.6-0.3,1.2-0.6,1.7-0.8
					c0.6-0.3,1.1-0.6,1.6-1c0.5-0.3,1.1-0.6,1.6-1c0.5-0.4,1-0.7,1.5-1.1c3.8-2.9,6.6-6.3,8.6-9.6c1.9-3.3,3.2-6.4,3.7-9
					c0.2-0.7,0.4-1.3,0.4-1.8c0.1-0.6,0.2-1.1,0.3-1.6c0.1-0.5,0.2-1,0.2-1.4c0-0.4,0-0.8,0.1-1.2c0-0.7,0.1-1.2,0.1-1.6
					C457.5,86.8,457.5,86.6,457.5,86.6s0,0.2,0,0.5c0,0.4,0,0.9-0.1,1.6c0,0.4,0,0.8,0,1.2c0,0.4-0.1,0.9-0.2,1.4
					c-0.1,0.5-0.2,1.1-0.2,1.7c-0.1,0.6-0.3,1.2-0.4,1.9c-0.6,2.6-1.8,5.8-3.7,9.1c-1.9,3.3-4.7,6.7-8.6,9.7c-0.5,0.4-1,0.7-1.5,1.1
					c-0.5,0.3-1.1,0.7-1.6,1c-0.5,0.3-1.1,0.7-1.7,1c-0.6,0.3-1.2,0.6-1.8,0.9c-0.3,0.1-0.6,0.3-0.9,0.4c-0.3,0.1-0.6,0.2-0.9,0.3
					c-0.6,0.2-1.3,0.5-1.9,0.7c-0.6,0.2-1.3,0.4-2,0.5c-0.7,0.2-1.3,0.4-2.1,0.5c-1.4,0.2-2.8,0.5-4.3,0.5c-0.7,0-1.5,0.1-2.2,0.1
					c-0.7,0-1.5-0.1-2.3-0.1c-0.4,0-0.8,0-1.1-0.1l-1.1-0.2c-0.8-0.1-1.5-0.2-2.3-0.4c-1.5-0.4-3.1-0.7-4.5-1.3
					c-1.5-0.5-3-1.2-4.4-1.9c-0.7-0.4-1.4-0.8-2.1-1.3c-0.3-0.2-0.7-0.4-1.1-0.7l-1-0.7c-1.4-0.9-2.6-2.1-3.9-3.3
					c-0.6-0.6-1.2-1.3-1.7-1.9l-0.4-0.5l-0.4-0.5l-0.8-1l-0.8-1l-0.7-1.1l-0.7-1.1l-0.3-0.6l-0.3-0.6c-0.4-0.8-0.8-1.6-1.2-2.4
					c-0.3-0.8-0.6-1.7-0.9-2.5c-1.1-3.4-1.7-7.1-1.8-10.7c0-3.7,0.6-7.3,1.8-10.7c0.3-0.8,0.6-1.7,0.9-2.5c0.4-0.8,0.8-1.6,1.2-2.4
					l0.3-0.6l0.3-0.6l0.7-1.1l0.7-1.1l0.8-1l0.8-1l0.4-0.5l0.4-0.5c0.6-0.6,1.2-1.3,1.7-1.9c1.3-1.1,2.5-2.3,3.9-3.3l1-0.7
					c0.3-0.3,0.7-0.4,1.1-0.7c0.7-0.4,1.4-0.9,2.1-1.3c1.5-0.7,2.9-1.5,4.4-1.9c1.5-0.6,3-0.9,4.5-1.3c0.8-0.2,1.5-0.2,2.3-0.4
					l1.1-0.2c0.4,0,0.8,0,1.1-0.1c0.8,0,1.5-0.1,2.3-0.1c0.7,0,1.5,0.1,2.2,0.1c1.5,0,2.9,0.3,4.3,0.5c0.7,0.1,1.4,0.3,2.1,0.5
					c0.7,0.2,1.4,0.3,2,0.5c0.6,0.2,1.3,0.5,1.9,0.7c0.3,0.1,0.6,0.2,0.9,0.3c0.3,0.1,0.6,0.3,0.9,0.4c0.6,0.3,1.2,0.6,1.8,0.9
					c0.6,0.3,1.1,0.7,1.7,1c0.5,0.3,1.1,0.6,1.6,1c0.5,0.4,1,0.7,1.5,1.1c3.8,2.9,6.7,6.4,8.6,9.7c1.9,3.3,3.1,6.4,3.7,9.1
					c0.1,0.7,0.4,1.3,0.4,1.9c0.1,0.6,0.2,1.1,0.2,1.7c0.1,0.5,0.2,1,0.2,1.4c0,0.4,0,0.8,0,1.2c0,0.7,0,1.2,0.1,1.6
					C457.5,86.4,457.5,86.6,457.5,86.6z"/>
			</g>
		</g>
		<g>
			<path class="st5" d="M411.7,80.8h6.4c0,0,0-5.4,5.6-5.5c2.9-0.1,4.4,1.9,5,3.3c0.7,1.7,0.5,3.6-0.5,5.2c-1.1,1.8-3.5,3.4-7.8,2.7
				v9.4h6.4v-3.4c0,0,8.9-2.3,8.9-12.1c0-9.4-8.4-11.6-12-11.6C420.9,68.8,411.5,69.4,411.7,80.8z"/>
			<rect x="420.4" y="98.4" class="st5" width="6.5" height="6"/>
		</g>
	</g>
	<g>
		<path class="st3" d="M392.2,115.7c0,2.9-2.3,5.2-5.2,5.2c-2.9,0-5.2-2.3-5.2-5.2c0-2.9,2.3-5.2,5.2-5.2
			C389.9,110.6,392.2,112.9,392.2,115.7z"/>
		<g>
			<path class="st4" d="M392.2,115.7c0,0,0-0.5-0.2-1.2c-0.2-0.8-0.7-1.9-1.9-2.7c-1.1-0.9-3-1.3-4.7-0.7c-0.9,0.3-1.7,0.9-2.3,1.7
				c-0.6,0.8-1,1.9-1,2.9c0,1.1,0.4,2.1,1,2.9c0.6,0.8,1.4,1.4,2.3,1.7c1.8,0.7,3.6,0.2,4.7-0.7c1.2-0.9,1.7-2,1.9-2.7
				C392.2,116.2,392.2,115.7,392.2,115.7c0,0,0,0.1,0,0.3c0,0.2,0,0.5-0.1,0.9c-0.2,0.8-0.7,2-1.9,2.9c-1.2,0.9-3.1,1.5-5,0.8
				c-0.9-0.3-1.9-1-2.5-1.9c-0.7-0.9-1-2-1.1-3.2c0-1.2,0.4-2.3,1.1-3.2c0.6-0.9,1.6-1.5,2.5-1.9c1.9-0.7,3.9-0.1,5,0.8
				c1.2,0.9,1.7,2.1,1.9,2.9c0.1,0.4,0.1,0.7,0.1,0.9C392.2,115.6,392.2,115.7,392.2,115.7z"/>
		</g>
	</g>
</g>
<g>
	<g>
		<path class="st2" d="M204.1,364.3c-10.8-27-18.9-45.8-18.9-45.8l-98.7,15c0,0-17.7,45.5-16.2,66.1c1.5,20.6,8.8,57,8.8,57h119.4
			C198.5,456.6,214.9,391.3,204.1,364.3z"/>
		<g>
			<g>
				<path class="st2" d="M168.5,138.8c0.8-7.8,1.9-15.6,4.8-22.9c2.9-7.3,7.5-14.1,14.1-18.3l1.7,1.6c1.2-3.4,4.3-5.9,7.8-6.5
					c3.5-0.5,7.3,1,9.4,3.8c3.8-1,8.1,0.5,10.4,3.7c2.3,3.2,2.4,7.8,0.2,11.1c3.5,0.4,6.7,3.2,7.5,6.7c0.9,3.5-0.6,7.4-3.6,9.4
					c3.9,3.4,5.5,9.2,3.8,14.1c-1.7,4.9-6.6,8.5-11.7,8.7c1.2,4.5-1.2,9.6-5.3,11.7c-4.1,2.1-9.7,0.9-12.6-2.7
					c0.4,4.7-3.4,9.1-7.9,10.2c-4.5,1.1-9.5-0.7-12.8-4c-3.3-3.3-5.1-7.9-5.8-12.5C167.7,148.2,168,143.4,168.5,138.8z"/>
				<g>
					<g>
						<g>
							<path class="st6" d="M189.5,104.2c4.5,1.5,5.5,5.1,6.4,8.2c2,6.6-0.3,16.4-3.9,22.2c-3.7,5.8-7.7,8.8-14.6,9.8
								c-0.2-10.5-0.4-20.9-0.7-31.4L189.5,104.2z"/>
						</g>
						<g>
							<g>
								<g>
									<g>
										<path class="st2" d="M192,122.2c3.1-4,2.7-10.3-1-13.9c2-2.5,1.3-6.3-0.7-8.8c-2-2.5-5-3.9-7.9-5.2
											c-1.6-7.3-9.8-12.4-17.1-10.7c-3.8-5.6-11.9-6.4-18.3-4.6c-1.6,0.5-3.2,1.1-4.8,1c-1.2,0-2.4-0.3-3.6-0.5
											c-6.6-0.9-13.1,3.7-15.7,9.9c-0.4,1-0.7,2-1.4,2.8c-0.9,1.1-2.1,1.7-3.2,2.6c-2.4,1.8-3.9,4.8-4,7.8
											c-0.1,2.6,0.7,5.3-0.4,7.6c-0.5,1.2-1.5,2.1-1.9,3.3c-1.2,3.5,2.7,7.1,2,10.7c-0.1,0.7-0.5,1.4-0.7,2.2
											c-0.4,1.5-0.3,3.1,0.4,4.5c0.5,1.1,1.4,2.1,1.4,3.3c0.1,0.9-0.3,1.8-0.5,2.7c-0.4,2.2,4.2,10.6,6.1,11.7l56.1,0.5
											c4.2-0.9,7.7-4.7,8.1-9c0.1-0.7,0.1-1.5,0.5-2.1c0.4-0.5,1-0.7,1.5-1c3.6-1.9,4.1-6.9,3.7-11c-0.1-0.6-0.1-1.2,0-1.7
											C190.9,123.5,191.5,122.9,192,122.2z"/>
									</g>
								</g>
								<g>
									<g>
										<path class="st7" d="M176,122.3c0.2-9.9-6.1-21.3-15.9-26.2c-6.2-3.1-11.1-3.1-14.3-3.5c-7.3-0.9-13.2,2.8-13.2,2.8
											c-3.1,0.7-14.4,11.1-15,22.4c-0.7,12.5-1,27.8,0.6,37.1c3.2,18.7,17.6,21,17.6,21c0,0-1.3,31.1-1.3,31.1l27.7,22.7
											l8.5-37.3L176,122.3z"/>
									</g>
								</g>
								<g>
									<g>
										<g>
											<g>
												<g>
													<g>
														<path class="st8" d="M135.6,175.9c0,0,12.7,0.7,25.1-7c0,0-6.5,13.3-25.3,11.7L135.6,175.9z"/>
													</g>
												</g>
											</g>
										</g>
									</g>
								</g>
								<g>
									<g>
										<g>
											<g>
												<g>
													<g>
														<path class="st7" d="M173.1,140.1c0-1.4,1.6-4.7,2.9-4.9c3.7-0.6,10.3-0.4,10.5,9c0.2,12.8-12.3,9.9-12.7,10
															C171.8,154.6,173.2,145,173.1,140.1z"/>
													</g>
												</g>
											</g>
										</g>
									</g>
								</g>
								<g>
									<g>
										<g>
											<g>
												<g>
													<g>
														<g>
															<path class="st8" d="M177.3,149.4c0.1,0,0.2,0.2,0.6,0.3c0.4,0.2,1,0.3,1.7,0c1.3-0.5,2.4-2.7,2.5-5
																c0-1.2-0.3-2.3-0.7-3.2c-0.4-0.9-1-1.6-1.7-1.7c-0.7-0.1-1.2,0.3-1.3,0.6c-0.2,0.4-0.1,0.6-0.1,0.6
																c0,0-0.3-0.2-0.2-0.7c0-0.3,0.2-0.6,0.5-0.8c0.3-0.3,0.8-0.4,1.2-0.3c1,0.1,1.9,0.9,2.4,1.9c0.5,1,0.8,2.2,0.8,3.6
																c0,2.6-1.3,5-3.2,5.6c-0.9,0.2-1.7,0-2-0.3C177.3,149.8,177.3,149.5,177.3,149.4z"/>
														</g>
													</g>
												</g>
											</g>
										</g>
									</g>
								</g>
								<path class="st2" d="M114.7,115.9c0.4-4.6,2.3-9.1,4.5-13.1c1.6-2.8,3.3-5.6,5.8-7.7c2-1.8,4.5-3,6.9-4.2
									c6.4-3,13.6-5.6,20.5-4.1c3.7,0.8,7.1,2.8,10.3,4.8c2.5,1.5,5,3.1,7.1,5.1c1.8,1.8,3.3,3.9,4.6,6.1
									c3.1,5.3,5.3,11.1,5.7,17.2c0.4,6.1,5,11.5,1.5,16.4c-0.3,0.4-6.6,1.7-7.1,1.9c-1,0.4-2.2-0.7-2.2-1.8
									c0-1.1,0.8-2.1,1.6-2.8c-1.6-0.1-2.7-1.8-2.6-3.4c0.1-1.6,1-3,2-4.2c0.1-0.2,0.2-0.3,0.3-0.5c0.1-0.5-0.5-0.9-1-1.1
									c-2.3-1.3-2.5-5.1-0.5-6.7c-3.1-0.7-5-4.4-3.9-7.3c0.2-0.5,0.4-1,0.2-1.4c-0.2-0.4-0.7-0.6-1.2-0.7c-3.4-1-5.6-4.8-4.9-8.3
									c-1.8,0.1-3.6,0.2-5.3-0.2c-1.7-0.4-3.4-1.4-4.2-3c-1.1,2-3.4,3.4-5.7,3.6c-2.3,0.1-4.7-1-6-2.9c-3,0.3-6-0.2-8.8-1.4
									c-0.7,2.8-2.9,5.1-5.6,6c-0.5,0.2-1.1,0.3-1.4,0.8c-0.2,0.3-0.1,0.7-0.1,1c0.1,1.8-1.1,2.5-2.1,4c-1,1.5-2.7,3.7-4.4,3.2
									c0.2,3-1.4,5.3-4,6.9L114.7,115.9z"/>
								<g>
									<g>
										<path class="st2" d="M112,113.6c0,0,0.1-0.5,0.7-1.4c0.3-0.4,0.6-0.9,1-1.6c0.3-0.6,0.6-1.4,0.7-2.4c0.1-0.9,0-2-0.1-3.2
											c-0.1-1.2-0.2-2.4,0.1-3.8c0.2-1.3,0.8-2.8,1.6-4c0.4-0.6,1-1.3,1.6-1.8c0.6-0.6,1.3-1,2-1.5c0.7-0.5,1.4-1,1.9-1.7
											c0.5-0.7,0.8-1.6,1.2-2.4c0.7-1.7,1.7-3.5,3.1-5c1.3-1.5,3-2.9,4.9-3.9c1-0.5,2-0.9,3.1-1.2c1.1-0.2,2.2-0.4,3.4-0.4
											c0.6,0,1.1,0.1,1.7,0.1c0.6,0.1,1.1,0.2,1.7,0.3c1.1,0.2,2.3,0.2,3.4,0c1.1-0.2,2.3-0.7,3.4-1c1.2-0.3,2.4-0.5,3.6-0.7
											c1.2-0.1,2.5-0.1,3.7-0.1c1.3,0.1,2.5,0.3,3.8,0.7c2.5,0.7,4.8,2.1,6.5,4.2c0.2,0.2,0.3,0.4,0.5,0.6l-0.2-0.1
											c3.9-0.9,7.9,0.1,11,2.1c3.1,2,5.5,5.2,6.2,8.7l-0.1-0.1c1.6,0.7,3.1,1.4,4.5,2.3c1.4,0.9,2.7,1.9,3.7,3.2
											c1,1.3,1.6,2.8,1.7,4.4c0.1,1.5-0.2,3.2-1.2,4.3l0-0.2c1.8,1.8,2.8,4.2,3,6.5c0.2,2.3-0.2,4.6-1.3,6.4
											c-0.2,0.5-0.6,0.9-0.8,1.3c-0.3,0.4-0.6,0.8-0.9,1.1c-0.2,0.4-0.4,0.8-0.4,1.3c0,0.4,0,0.9,0,1.3c0.1,1.8,0.1,3.4-0.1,4.9
											c-0.2,1.5-0.6,2.7-1.2,3.7c-0.6,1-1.3,1.7-2,2.1c-0.7,0.4-1.2,0.6-1.6,0.9c-0.3,0.2-0.5,0.4-0.5,0.4c0,0,0.1-0.2,0.4-0.4
											c0.3-0.3,0.9-0.4,1.5-0.9c0.6-0.4,1.3-1.1,1.9-2.1c0.6-1,1-2.2,1.2-3.7c0.2-1.4,0.2-3.1,0.1-4.8c0-0.4-0.1-0.9-0.1-1.4
											c0-0.5,0.2-1,0.5-1.4c0.3-0.4,0.6-0.8,0.9-1.2c0.3-0.4,0.6-0.8,0.8-1.2c1-1.8,1.4-4,1.2-6.2c-0.2-2.2-1.1-4.6-2.9-6.3
											l-0.1-0.1l0.1-0.1c0.9-1.1,1.2-2.6,1.1-4.1c-0.1-1.5-0.7-3-1.6-4.2c-0.9-1.3-2.2-2.3-3.6-3.1c-1.4-0.9-2.9-1.6-4.5-2.3
											l-0.1,0l0-0.1c-0.7-3.4-3-6.5-6.1-8.5c-3.1-2-7-3-10.7-2.1l-0.1,0l-0.1-0.1c-0.2-0.2-0.3-0.4-0.5-0.6
											c-1.6-2-3.9-3.4-6.3-4.1c-1.2-0.3-2.4-0.6-3.7-0.6c-1.2-0.1-2.5-0.1-3.7,0.1c-1.2,0.1-2.4,0.3-3.6,0.7
											c-1.2,0.3-2.3,0.7-3.5,1c-0.6,0.1-1.2,0.2-1.8,0.2c-0.6,0-1.2-0.1-1.8-0.2c-0.6-0.1-1.1-0.2-1.7-0.3
											c-0.6-0.1-1.1-0.1-1.7-0.1c-1.1,0-2.2,0.2-3.3,0.4c-1,0.3-2.1,0.6-3,1.1c-1.9,0.9-3.5,2.3-4.8,3.8c-1.3,1.5-2.3,3.2-3,4.9
											c-0.3,0.9-0.7,1.7-1.2,2.5c-0.6,0.7-1.3,1.3-2,1.7c-0.7,0.5-1.4,0.9-2,1.5c-0.6,0.5-1.1,1.1-1.5,1.8
											c-0.9,1.3-1.4,2.6-1.6,3.9c-0.3,1.3-0.2,2.6-0.1,3.7c0.1,1.2,0.2,2.2,0.1,3.2c-0.1,1-0.4,1.8-0.7,2.4
											c-0.4,0.6-0.8,1.1-1,1.6c-0.3,0.4-0.5,0.8-0.6,1C112.1,113.4,112,113.6,112,113.6z"/>
									</g>
								</g>
								<g>
									<g>
										<path class="st2" d="M159.3,80.8c0,0-0.3-0.2-1-0.5c-0.6-0.3-1.6-0.7-2.8-0.8c-1.2-0.1-2.7,0-4.2,0.6
											c-1.5,0.7-2.9,1.9-3.8,3.5c-0.3,0.5-0.5,1-0.6,1.5c-0.1,0.5-0.2,1,0.1,1.3l0.3,0.4l-0.5-0.1c-1.4-0.4-2.9-0.1-4,0.5
											c-1.1,0.6-1.8,1.5-2.2,2.4c-0.4,0.8-0.5,1.6-0.5,2.1c0,0.5,0,0.8,0,0.8c0,0,0-0.1-0.1-0.2c0-0.1-0.1-0.3-0.1-0.6
											c0-0.5,0-1.3,0.4-2.2c0.4-0.9,1.1-1.9,2.2-2.6c1.1-0.7,2.7-1,4.2-0.6l-0.2,0.3c-0.4-0.5-0.3-1.1-0.2-1.7
											c0.2-0.5,0.4-1,0.7-1.5c1-1.7,2.4-3,4-3.6c1.6-0.7,3.1-0.8,4.4-0.6c1.3,0.2,2.2,0.6,2.8,0.9c0.3,0.2,0.5,0.3,0.7,0.4
											C159.3,80.8,159.3,80.8,159.3,80.8z"/>
									</g>
								</g>
								<g>
									<g>
										<path class="st2" d="M180.2,95.4c0,0-0.1,0.2-0.4,0.5c-0.3,0.3-0.8,0.7-1.4,1c-0.7,0.4-1.5,0.7-2.5,0.8
											c-1,0.1-2.2-0.2-3.2-0.9l0.3,0c-0.1,0.2-0.2,0.3-0.4,0.5c-0.1,0.2-0.3,0.3-0.4,0.5c-0.9,1-2.1,1.7-3.2,2
											c-1.1,0.4-2.2,0.5-3,0.4c-0.9-0.1-1.6-0.3-2-0.4c-0.4-0.2-0.7-0.3-0.7-0.4c0-0.1,1,0.5,2.7,0.5c0.8,0,1.9-0.1,2.9-0.5
											c1.1-0.4,2.1-1,3-1.9c0.1-0.2,0.3-0.3,0.4-0.5c0.1-0.2,0.2-0.3,0.4-0.5l0.1-0.2l0.2,0.1c0.9,0.7,2,0.9,2.9,0.9
											c1,0,1.8-0.4,2.4-0.7C179.5,96,180.2,95.3,180.2,95.4z"/>
									</g>
								</g>
								<g>
									<g>
										<path class="st2" d="M187,107.2c0,0,0,0.1,0,0.2c0,0.1-0.1,0.4-0.3,0.6c-0.3,0.5-1,1.1-2.1,1.4c-1.1,0.3-2.4,0.1-3.7-0.4
											c-0.7-0.2-1.3-0.5-2-0.8c-0.7-0.3-1.4-0.8-1.8-1.6c0-0.1-0.1-0.1-0.1-0.2l0.3,0.1c-1.2,1-2.5,1.8-3.8,2.3
											c-1.3,0.5-2.6,0.6-3.6,0.4c-1-0.2-1.8-0.6-2.2-1c-0.2-0.2-0.4-0.3-0.5-0.5c-0.1-0.1-0.1-0.2-0.1-0.2c0,0,0.2,0.2,0.7,0.5
											c0.4,0.3,1.2,0.7,2.2,0.8c1,0.2,2.2,0,3.4-0.5c1.2-0.5,2.5-1.3,3.7-2.3l0.2-0.2l0.1,0.3c0,0.1,0,0.1,0.1,0.2
											c0.3,0.7,0.9,1.1,1.6,1.4c0.7,0.3,1.3,0.6,2,0.8c1.3,0.5,2.5,0.7,3.5,0.4c1-0.2,1.7-0.8,2-1.2
											C187,107.5,187,107.2,187,107.2z"/>
									</g>
								</g>
							</g>
						</g>
					</g>
					<g>
						<g>
							<g>
								<g>
									<g>
										<g>
											<g>
												<g>
													<g>
														<path class="st2" d="M145.7,133.2c-0.1,1.2,0.9,2.3,2.2,2.5c1.3,0.1,2.4-0.8,2.5-2.1c0.1-1.2-0.9-2.3-2.2-2.5
															C146.9,131,145.8,131.9,145.7,133.2z"/>
													</g>
												</g>
											</g>
										</g>
									</g>
								</g>
							</g>
						</g>
					</g>
					<g>
						<g>
							<g>
								<g>
									<g>
										<g>
											<g>
												<g>
													<g>
														<path class="st2" d="M122.8,132.5c-0.1,1.2,0.9,2.3,2.2,2.5c1.3,0.1,2.4-0.8,2.5-2.1c0.1-1.2-0.9-2.3-2.2-2.5
															C124,130.4,122.9,131.3,122.8,132.5z"/>
													</g>
												</g>
											</g>
										</g>
									</g>
								</g>
							</g>
						</g>
					</g>
					<g>
						<g>
							<g>
								<g>
									<g>
										<g>
											<g>
												<g>
													<g>
														<g>
															<path class="st2" d="M121.9,124.7c0.3,0.3,2.1-1,4.7-0.9c2.5,0.1,4.4,1.4,4.7,1.1c0.1-0.1-0.1-0.7-0.9-1.3
																c-0.8-0.6-2.1-1.2-3.7-1.3c-1.6,0-2.9,0.5-3.7,1.1C122,124,121.7,124.5,121.9,124.7z"/>
														</g>
													</g>
												</g>
											</g>
										</g>
									</g>
								</g>
							</g>
						</g>
					</g>
					<g>
						<g>
							<g>
								<g>
									<g>
										<g>
											<g>
												<g>
													<g>
														<g>
															<path class="st2" d="M147.2,126c0.3,0.3,2-1.2,4.6-1.3c2.5-0.2,4.5,1,4.7,0.6c0.1-0.1-0.2-0.7-1.1-1.2
																c-0.8-0.5-2.2-1-3.8-0.9c-1.6,0.1-2.9,0.8-3.6,1.4C147.3,125.2,147,125.8,147.2,126z"/>
														</g>
													</g>
												</g>
											</g>
										</g>
									</g>
								</g>
							</g>
						</g>
					</g>
					<g>
						<g>
							<g>
								<g>
									<g>
										<g>
											<g>
												<g>
													<g>
														<path class="st2" d="M137.7,145.1c0-0.1-1.6-0.5-4.1-0.9c-0.6-0.1-1.3-0.2-1.4-0.7c-0.1-0.5,0.2-1.2,0.5-1.9
															c0.7-1.6,1.4-3.2,2.1-4.9c2.9-7,5-12.7,4.7-12.8c-0.3-0.1-2.9,5.4-5.8,12.4c-0.7,1.7-1.4,3.4-2,4.9
															c-0.3,0.7-0.7,1.6-0.4,2.5c0.2,0.5,0.6,0.9,1,1c0.4,0.1,0.8,0.2,1.1,0.2C136.1,145.1,137.7,145.2,137.7,145.1z"/>
													</g>
												</g>
											</g>
										</g>
									</g>
								</g>
							</g>
						</g>
					</g>
					<path class="st8" d="M141.6,148.8c1,0.1,1.9,0.6,2.5,1.4c0.6,0.8,1,2.7,0.4,3.4c-0.5,0.6-2.6,0.6-4,0.4
						c-0.7-0.1-1.2-0.5-1.5-1.2l-0.6-1.6c-0.3-0.9,0.2-2,1.1-2.3C140.2,148.8,140.9,148.7,141.6,148.8z"/>
					<g>
						<g>
							<g>
								<g>
									<g>
										<path class="st2" d="M146,116.7c0.4,0.6,2.8-0.2,5.8-0.4c3-0.3,5.5,0.1,5.8-0.6c0.1-0.3-0.4-0.9-1.5-1.4
											c-1.1-0.5-2.7-0.8-4.5-0.7c-1.8,0.2-3.4,0.7-4.3,1.4C146.3,115.7,145.9,116.4,146,116.7z"/>
									</g>
								</g>
							</g>
						</g>
					</g>
					<g>
						<g>
							<g>
								<g>
									<g>
										<path class="st2" d="M122.5,120.5c0.5,0.6,2.5-0.1,5-0.2c2.4-0.2,4.5,0.3,5-0.4c0.2-0.3-0.1-0.9-1.1-1.4
											c-0.9-0.5-2.4-0.9-4.1-0.8c-1.7,0.1-3.1,0.7-4,1.3C122.5,119.6,122.3,120.2,122.5,120.5z"/>
									</g>
								</g>
							</g>
						</g>
					</g>
				</g>
			</g>
			<g>
				<g>
					<path class="st6" d="M210.2,226.2l-24,87.1l8.4,25c-31.7,14-77.6,18.4-113.7,0.9c0,0,12.3-36,12.7-43c0.4-7-2.6-48,0.7-61.7
						c3.3-13.7,12.9-43.2,12.9-43.2l28.1-4.5c12.9,6.9,21.2,8,35-0.1l26.2,5.7L210.2,226.2z"/>
				</g>
				<g>
					<path class="st6" d="M107.7,191.3c0,0-15.1,1.6-21.2,14c-6,12.3-22.7,66.6-23.6,75.7c-0.9,9.1,6.5,21.3,12.9,23l19.5-19.4
						l16.2,1.4l21.3-99.2L107.7,191.3z"/>
				</g>
				<g class="st9">
					<g>
						<path d="M96.3,224.6c-4.7,12.2-6,25.7-3.8,38.5c-3.5-1.3-7.1-2.6-10.6-4c2.9,4,6.7,7.3,11.1,9.7c-2.9-0.8-5.8-1.7-8.8-1.5
							c-3,0.2-6.1,1.6-7.4,4.3c3.5-0.6,7-1.3,10.5-0.9c3.5,0.4,7.1,2,8.9,5c-2.6-11.3-3.6-23-3-34.6"/>
					</g>
				</g>
			</g>
			<g>
				<g class="st9">
					<g>
						<path d="M91.9,299.4l79.3,7.9c-5.7-0.1-10.1,4.7-15.1,7.6c-9.2,5.3-20.6,3.8-31,2.2c-8.7-1.4-17.3-2.7-26-4.1
							c-2.2-0.3-4.5-0.8-6.1-2.3C90.1,307.9,90.9,303.2,91.9,299.4z"/>
					</g>
				</g>
				<g>
					<path class="st7" d="M152.4,292.8l13.3-12.8c1.3-1.2,3.1-1.9,4.8-1.7c3.8,0.4,10.2,1,11.5,1.5c1.9,0.7,3.7,1.8,4.2,2.7
						c0.5,0.9,2.3,6.6,2.4,7.5c0.1,0.4-0.1,1.6-0.2,2.7c-0.2,1.3-1.6,2.1-2.8,1.4c-0.5-0.3-1-0.7-1.3-1.2c-0.8-1.6-0.7-2.2-0.7-2.2
						s0.4,5.7-4.2,5.8c0,0,2.1,4.9-3.8,6.9c0,0,0.2,3.2-4.8,3.6c-5,0.4-9.5,0-9.5,0s-9.1,6.6-15.6,7c-6.4,0.4-20.8-2.4-20.8-2.4
						l-1.7-26.5L152.4,292.8z"/>
				</g>
				<g>
					<g>
						<path class="st8" d="M170.4,284.7c0,0,0.8,0.4,2.1,0.9c1.3,0.5,3.2,1.2,5.3,1.7c1,0.3,2.1,0.5,3,0.7c0.9,0.2,1.4,0.9,1.8,1.5
							c0.4,0.6,0.7,1.1,1,1.4c0.3,0.3,0.4,0.4,0.5,0.4c0,0-0.1-0.2-0.3-0.5c-0.2-0.3-0.5-0.8-0.9-1.4c-0.2-0.3-0.4-0.6-0.7-0.9
							c-0.3-0.3-0.7-0.6-1.2-0.7c-0.9-0.3-1.9-0.4-3-0.7c-2.1-0.6-4-1.2-5.3-1.6C171.3,284.9,170.4,284.7,170.4,284.7z"/>
					</g>
				</g>
				<g>
					<g>
						<path class="st8" d="M168.7,292.8c0,0,0.5,0.3,1.5,0.7c0.9,0.4,2.2,0.9,3.7,1.3c1.5,0.5,2.8,0.9,3.8,1.1
							c1,0.3,1.6,0.4,1.6,0.3c0,0-0.6-0.3-1.5-0.6c-1.1-0.4-2.3-0.8-3.7-1.2c-1.4-0.5-2.6-0.9-3.7-1.2
							C169.3,293,168.7,292.8,168.7,292.8z"/>
					</g>
				</g>
				<g>
					<g>
						<path class="st8" d="M165.4,300.4c0,0.1,2.3,0.3,5.1,1.1c2.8,0.7,4.9,1.7,4.9,1.6c0,0-0.5-0.3-1.4-0.7
							c-0.9-0.4-2.1-0.8-3.5-1.2c-1.4-0.4-2.7-0.6-3.6-0.7C166,300.4,165.4,300.4,165.4,300.4z"/>
					</g>
				</g>
				<g>
					<path class="st6" d="M134.7,313.4L75.8,304c0,0,7.1-29.5,17.4-29.5c1.5,0,53.8,17,53.8,17L134.7,313.4z"/>
				</g>
				<g>
					<g>
						<path class="st8" d="M145,300.5c0,0,0.6-0.5,1.4-1.3c0.9-0.9,2-2,3.2-3.2c1.2-1.2,2.4-2.4,3.1-3.2c0.8-0.9,1.2-1.4,1.2-1.4
							c0,0-0.6,0.5-1.4,1.3c-0.9,0.9-2,2-3.2,3.2c-1.2,1.2-2.4,2.4-3.1,3.2C145.4,299.9,144.9,300.5,145,300.5z"/>
					</g>
				</g>
			</g>
			<g>
				<path class="st2" d="M147,291.4c0,0-0.3,0-0.7-0.1c-0.6-0.2-1.3-0.3-2.1-0.6c-1.9-0.6-4.5-1.3-7.7-2.2
					c-6.5-1.9-15.4-4.6-25.2-7.6c-5.4-1.7-10.6-3.3-15.2-4.7l-0.1,0l-0.1-0.1c-1.8-2.4-4.5-3.9-6.9-4.6c-2.4-0.7-4.7-0.8-6.6-0.7
					c-1.9,0.2-3.3,0.6-4.2,0.8c-1,0.3-1.5,0.5-1.5,0.5c0,0,0.4-0.3,1.4-0.7c0.9-0.4,2.4-0.9,4.3-1.1c1.9-0.2,4.2-0.2,6.8,0.5
					c2.5,0.7,5.3,2.2,7.3,4.8l-0.2-0.2c4.6,1.4,9.8,3,15.2,4.6c9.8,3,18.7,5.8,25.2,7.8c3.1,1,5.7,1.8,7.6,2.5
					c0.8,0.3,1.5,0.5,2.1,0.7C146.8,291.3,147,291.4,147,291.4z"/>
			</g>
		</g>
		<g>
			<g>
				<g>
					<g>
						<path class="st7" d="M131.4,197c0.5-1.6,3.3-16.8,4.4-20.3c1.6-5,14.5-13.8,14.5-13.8s-2-4.7-7.5-2.2
							c-6.5,2.9-9.7,7.7-11.4,6.7c-1.6-1-11.9-11.4-14.6-11.1c-2.8,0.3-3.4,3.2-2.4,4.3c1,1.1,2.1,3,2.1,3s-5.9-1.8-4.8,4.7
							c0,0-6.7-4.2-6.1,4.7c0,0-4.4-1.8-5.4,1.3c-1,3.1,1.9,6.7,3.4,9.2c1.5,2.5,6.3,16.7,6.3,16.7l0.1,12.6l23.5-4.8L131.4,197z"/>
						<g>
							<path class="st8" d="M131.4,197c0,0,0.1,0.2,0.2,0.7c0.1,0.5,0.3,1.2,0.4,2.1c0.4,1.9,0.9,4.6,1.6,8.1l0,0.2l-0.2,0
								c-5.8,1.2-13.8,2.9-23.5,5l-0.4,0.1l0-0.4c0-3.9-0.1-8.1-0.1-12.6l0,0.1c-1.7-4.8-3.4-10-5.6-15.3c-1.1-2.5-3.3-4.7-4.1-7.8
								c-0.2-0.8-0.3-1.6-0.2-2.4c0.1-0.8,0.5-1.7,1.3-2.2c0.8-0.5,1.6-0.6,2.5-0.6c0.8,0.1,1.6,0.2,2.4,0.5l-0.6,0.4
								c0-0.9-0.1-1.7,0.1-2.6c0.2-0.9,0.4-1.9,1.1-2.6c0.7-0.8,1.9-0.9,2.8-0.8c1,0.2,1.8,0.5,2.7,1l-0.6,0.4
								c-0.2-1.2-0.4-2.6,0.4-3.9c0.5-0.8,1.4-1.3,2.3-1.4c0.9-0.1,1.7,0,2.6,0.2l-0.5,0.6c-0.6-1-1.2-2-1.9-2.8
								c-0.5-0.5-0.7-1.2-0.7-1.9c0-0.7,0.3-1.3,0.6-1.8c0.4-0.5,0.9-1,1.5-1.2c0.3-0.1,0.6-0.2,0.9-0.2c0.3,0,0.7,0,1,0.1
								c1.2,0.4,2.1,1.1,3.1,1.7c3.7,2.7,6.8,5.7,10,8.5c0.4,0.3,0.8,0.7,1.1,0.8c0.3,0.1,0.8-0.1,1.2-0.4c0.8-0.5,1.6-1.2,2.4-1.8
								c1.6-1.3,3.3-2.5,5-3.4c1.7-0.9,3.5-1.9,5.6-1.8c2.1,0,3.8,1.4,4.6,3.1l0.1,0.3l-0.2,0.2c-5,3.6-9.5,7.1-12.7,10.9
								c-0.8,1-1.4,2-1.8,3c-0.3,1.1-0.6,2.2-0.8,3.2c-0.5,2.1-0.9,4-1.3,5.8c-0.7,3.4-1.3,6.2-1.7,8.1c-0.2,0.9-0.4,1.6-0.5,2.1
								C131.5,196.7,131.4,197,131.4,197c0,0,0-0.3,0.1-0.7c0.1-0.5,0.2-1.2,0.4-2.1c0.4-1.9,0.9-4.7,1.5-8.1
								c0.4-1.8,0.8-3.7,1.2-5.8c0.2-1.1,0.5-2.2,0.8-3.3c0.4-1.2,1-2.2,1.8-3.2c3.2-3.9,7.7-7.5,12.8-11.1L150,163
								c-0.7-1.5-2.3-2.7-4-2.7c-1.8-0.1-3.5,0.9-5.2,1.8c-1.7,1-3.3,2.1-4.9,3.4c-0.8,0.6-1.6,1.3-2.5,1.9c-0.5,0.3-1,0.6-1.8,0.5
								c-0.7-0.3-1-0.7-1.4-1c-3.2-2.8-6.3-5.8-9.9-8.5c-0.9-0.6-1.8-1.3-2.8-1.6c-0.2-0.1-0.4-0.1-0.7-0.1c-0.3,0-0.5,0.1-0.7,0.2
								c-0.5,0.2-0.9,0.5-1.2,0.9c-0.6,0.8-0.7,2,0,2.7c0.8,0.9,1.4,1.9,2,2.9l0.5,0.9l-1-0.3c-1.4-0.4-3.2-0.3-3.9,0.9
								c-0.6,0.9-0.5,2.2-0.3,3.3l0.1,0.9l-0.8-0.5c-0.7-0.4-1.6-0.8-2.4-0.9c-0.8-0.1-1.6,0-2.1,0.5c-1,1.1-1,3-0.9,4.6l0,0.6
								l-0.6-0.2c-1.3-0.5-3-0.8-4.1-0.1c-0.5,0.3-0.8,1-0.9,1.6c-0.1,0.7,0,1.4,0.1,2.1c0.4,1.4,1.1,2.7,1.8,3.9
								c0.7,1.2,1.7,2.4,2.2,3.8c2.2,5.3,3.9,10.5,5.6,15.4l0,0.1l0,0.1c0,4.5,0,8.7,0,12.6l-0.4-0.3c9.7-1.9,17.7-3.5,23.5-4.7
								l-0.2,0.2c-0.6-3.5-1.1-6.2-1.4-8.1c-0.1-0.9-0.3-1.6-0.3-2.1C131.4,197.2,131.4,197,131.4,197z"/>
						</g>
					</g>
				</g>
				<g>
					<g>
						<path class="st8" d="M116.5,163.8c-0.1,0.1,1.3,1.2,2.9,2.7c1.6,1.4,2.8,2.7,2.9,2.6c0.1-0.1-1.1-1.4-2.7-2.8
							C118,164.7,116.5,163.7,116.5,163.8z"/>
					</g>
				</g>
				<g>
					<g>
						<path class="st8" d="M111.2,168c-0.1,0,0.4,1.3,1.4,2.6c1,1.3,2.1,2.1,2.2,2.1c0.1-0.1-0.9-1-1.9-2.3
							C111.9,169.1,111.3,167.9,111.2,168z"/>
					</g>
				</g>
				<g>
					<g>
						<path class="st8" d="M105.7,172.7c-0.1,0.1,0.5,1,1.2,2c0.8,1.1,1.4,1.9,1.5,1.8c0.1-0.1-0.5-1-1.2-2
							C106.5,173.4,105.8,172.6,105.7,172.7z"/>
					</g>
				</g>
			</g>
		</g>
		<path class="st6" d="M196.6,192.5l-25.3,25.2l-25.9,32.6l-10.3-43.4l-26.3,5.4c0,0,1.9,49,10,71.2c1.5,4.2,6.1,7.4,8.1,8.3
			c12.7,6,25.2-3.3,25.2-3.3s53.1-35.6,58.9-59.5c2.7-11.3,1.6-24.7-3-30.2C203.9,194,196.6,192.5,196.6,192.5z"/>
		<g>
			<path class="st2" d="M211,229c0,0-0.1,0.3-0.2,0.8c-0.2,0.5-0.3,1.3-0.7,2.2c-0.7,2-2,4.7-4.2,8c-2.1,3.3-5.1,7.1-8.8,11.2
				c-3.8,4.1-8.3,8.5-13.5,13.2c-5.2,4.7-11.2,9.5-17.7,14.5c-3.3,2.5-6.7,5-10.3,7.5c-0.9,0.6-1.8,1.3-2.7,1.9
				c-0.9,0.6-1.8,1.3-2.8,1.8c-2,1.1-4.1,2.1-6.3,2.8c-4.4,1.4-9.4,1.7-14.1,0.3c-0.6-0.1-1.1-0.4-1.7-0.6c-0.6-0.2-1.2-0.4-1.7-0.8
				c-1.1-0.6-2.1-1.3-3.1-2.1c-1.9-1.6-3.6-3.6-4.6-6c-1.7-4.8-2.9-9.8-4-14.8c-1-5.1-1.9-10.3-2.5-15.6
				c-1.9-14.1-2.9-27.9-3.5-40.9l0-0.2l0.2,0c9.2-1.9,18-3.7,26.3-5.4l0.2,0l0.1,0.2c3.9,16.5,7.4,31.2,10.3,43.4l-0.3-0.1
				c8.9-9.6,16-17.2,21-22.5c2.5-2.6,4.4-4.7,5.7-6.1c0.6-0.7,1.1-1.2,1.5-1.6c0.3-0.3,0.5-0.5,0.5-0.5s-0.2,0.2-0.5,0.6
				c-0.3,0.4-0.8,0.9-1.4,1.6c-1.3,1.4-3.2,3.5-5.6,6.1c-4.9,5.3-12,13-20.8,22.7l-0.2,0.2l-0.1-0.3c-2.9-12.2-6.4-26.9-10.4-43.4
				l0.3,0.2c-8.3,1.7-17.1,3.5-26.3,5.4l0.2-0.3c0.6,13,1.7,26.8,3.5,40.9c0.7,5.3,1.6,10.5,2.5,15.6c1.1,5.1,2.3,10,3.9,14.8
				c0.9,2.3,2.6,4.2,4.4,5.8c0.9,0.8,1.9,1.5,3,2.1c0.5,0.3,1.1,0.5,1.6,0.7c0.6,0.2,1.1,0.5,1.7,0.6c4.6,1.4,9.5,1.2,13.8-0.2
				c2.2-0.7,4.3-1.6,6.2-2.7c1-0.6,1.9-1.2,2.8-1.8c0.9-0.6,1.8-1.3,2.7-1.9c3.6-2.5,7-5,10.3-7.5c6.5-5,12.5-9.8,17.7-14.4
				c5.2-4.6,9.8-9,13.5-13.1c3.8-4.1,6.7-7.8,8.9-11.1c2.1-3.3,3.5-6,4.2-7.9c0.4-0.9,0.6-1.7,0.8-2.2C210.9,229.3,211,229,211,229z
				"/>
		</g>
		<g>
			<path class="st2" d="M150.3,270.2c-0.1,0,0.2-1.3,0.4-3.3c0.1-1,0.1-2.3,0-3.6c-0.1-1.4-0.3-2.8-0.7-4.4c-0.8-3-2.1-5.6-3.1-7.4
				c-1.1-1.8-1.9-2.8-1.8-2.8c0,0,0.2,0.2,0.6,0.7c0.4,0.4,0.9,1.1,1.5,2c1.2,1.7,2.5,4.3,3.3,7.4c0.4,1.6,0.6,3.1,0.7,4.5
				c0,1.4,0,2.6-0.1,3.7c-0.1,1-0.3,1.9-0.5,2.4C150.4,269.9,150.3,270.2,150.3,270.2z"/>
		</g>
		<g>
			<path class="st2" d="M146.7,152.1c0,0.1-0.6,0.1-1.4-0.1c-0.8-0.2-1.9-0.4-3.2-0.5c-1.2-0.1-2.3,0-3.1,0.2
				c-0.8,0.2-1.1,0.5-1.2,0.4c-0.1,0-0.1-0.2,0.1-0.4c0.2-0.2,0.5-0.5,0.9-0.7c0.8-0.4,2.1-0.7,3.5-0.5c1.4,0.1,2.5,0.5,3.3,0.9
				C146.3,151.7,146.7,152,146.7,152.1z"/>
		</g>
	</g>
	<g class="st9">
		<path d="M186.8,312.8c0,0-11.6-1.4-17.8-2.4c-3.4-0.5-8.6-1.1-9.6-2c-1.2-1.2-1.2-3.1-1.3-4.8c-2.2-28.8,7.7-60.1,38.4-78.7
			l7.8,2.1l-0.5,18.8L186.8,312.8z"/>
	</g>
</g>
<g>
	<g>
		<g>
			<g>
				<g>
					<g>
						<g>
							<g>
								<g>
									<g>
										<g>
											<g>
												<g>
													<path class="st2" d="M367.5,88c3.9,0.4,7.9-2.6,8.6-6.5c0.7-3.9-1.8-8.1-5.6-9.2c2.4-2.6,2.9-6.7,1.2-9.7
														c-1.7-3.1-5.4-4.8-8.8-4.2c-0.2-3.4-2.4-6.7-5.4-8.2c-3.1-1.6-6.9-1.4-9.9,0.4c-3.9-3.2-10-3.1-13.9,0.1
														c-3.4-0.5-7,1.3-8.4,4.4c-1.5,3.1-0.8,7,1.7,9.4"/>
												</g>
											</g>
										</g>
									</g>
								</g>
							</g>
						</g>
					</g>
					<g>
						<g>
							<g>
								<g>
									<g>
										<g>
											<g>
												<path class="st7" d="M332.2,58.6l1.8,0c17.8-0.4,32.9,12.9,34.7,30.6c1.7,16.4,3.4,34.6,3.5,43.5
													c0.2,18.3-18,21.6-18,21.6l2.1,21.9l-44.4-0.3L306,96.1C303.9,77.1,313.2,60.1,332.2,58.6z"/>
											</g>
										</g>
									</g>
								</g>
							</g>
							<g>
								<g>
									<g>
										<g>
											<g>
												<g>
													<g>
														<g>
															<g>
																<g>
																	<g>
																		<path class="st8" d="M354.2,154.1c0,0-12.8,1-25.2-6.5c0,0,7.4,13.3,25.7,11.3L354.2,154.1z"/>
																	</g>
																</g>
															</g>
														</g>
													</g>
												</g>
											</g>
										</g>
									</g>
								</g>
							</g>
							<g>
								<g>
									<g>
										<g>
											<g>
												<g>
													<g>
														<g>
															<g>
																<g>
																	<g>
																		<g>
																			<g>
																				<g>
																					<path class="st2" d="M363.1,108.9c0.1,1.4-1,2.6-2.5,2.7c-1.4,0.1-2.7-0.9-2.7-2.3c-0.1-1.4,1-2.6,2.5-2.7
																						C361.8,106.5,363,107.6,363.1,108.9z"/>
																				</g>
																			</g>
																		</g>
																	</g>
																</g>
															</g>
														</g>
													</g>
												</g>
											</g>
										</g>
									</g>
								</g>
							</g>
							<g>
								<g>
									<g>
										<g>
											<g>
												<g>
													<g>
														<g>
															<g>
																<g>
																	<g>
																		<g>
																			<g>
																				<g>
																					<g>
																						<path class="st2" d="M365,98.1c-0.3,0.3-2.3-1.1-5.1-1c-2.8,0-4.8,1.5-5.2,1.2c-0.2-0.1,0.2-0.8,1-1.4
																							c0.9-0.7,2.4-1.3,4.1-1.4c1.8,0,3.2,0.6,4.1,1.2C364.8,97.4,365.1,98,365,98.1z"/>
																					</g>
																				</g>
																			</g>
																		</g>
																	</g>
																</g>
															</g>
														</g>
													</g>
												</g>
											</g>
										</g>
									</g>
								</g>
							</g>
							<g>
								<g>
									<g>
										<g>
											<g>
												<g>
													<g>
														<g>
															<g>
																<g>
																	<g>
																		<g>
																			<g>
																				<g>
																					<path class="st2" d="M338.9,108.9c0.1,1.4-1,2.6-2.5,2.7c-1.4,0.1-2.7-0.9-2.7-2.3c-0.1-1.4,1-2.6,2.5-2.7
																						C337.6,106.5,338.8,107.6,338.9,108.9z"/>
																				</g>
																			</g>
																		</g>
																	</g>
																</g>
															</g>
														</g>
													</g>
												</g>
											</g>
										</g>
									</g>
								</g>
							</g>
							<g>
								<g>
									<g>
										<g>
											<g>
												<g>
													<g>
														<g>
															<g>
																<g>
																	<g>
																		<g>
																			<g>
																				<g>
																					<g>
																						<path class="st2" d="M337.3,99.3c-0.3,0.3-2.3-1.1-5.1-1c-2.8,0-4.8,1.5-5.2,1.2c-0.2-0.1,0.2-0.8,1-1.4
																							c0.9-0.7,2.4-1.3,4.1-1.4c1.8,0,3.2,0.6,4.1,1.2C337.2,98.5,337.5,99.1,337.3,99.3z"/>
																					</g>
																				</g>
																			</g>
																		</g>
																	</g>
																</g>
															</g>
														</g>
													</g>
												</g>
											</g>
										</g>
									</g>
								</g>
							</g>
							<g>
								<g>
									<g>
										<g>
											<g>
												<g>
													<g>
														<g>
															<g>
																<g>
																	<g>
																		<g>
																			<g>
																				<g>
																					<path class="st2" d="M348,119.9c0-0.2,1.7-0.5,4.5-0.9c0.7-0.1,1.4-0.2,1.5-0.7c0.2-0.5-0.2-1.3-0.5-2.1
																						c-0.7-1.7-1.5-3.5-2.3-5.4c-3.1-7.7-5.4-14.1-5.1-14.2c0.3-0.1,3.1,6,6.2,13.7c0.8,1.9,1.5,3.7,2.2,5.5
																						c0.3,0.8,0.8,1.7,0.4,2.8c-0.2,0.5-0.7,0.9-1.2,1.1c-0.5,0.2-0.9,0.2-1.2,0.2C349.8,120,348.1,120.1,348,119.9
																						z"/>
																				</g>
																			</g>
																		</g>
																	</g>
																</g>
															</g>
														</g>
													</g>
												</g>
											</g>
										</g>
									</g>
								</g>
							</g>
							<g>
								<g>
									<g>
										<g>
											<g>
												<g>
													<g>
														<g>
															<g>
																<g>
																	<path class="st2" d="M337.9,93.5c-0.4,0.7-2.8,0-5.8,0c-3-0.1-5.5,0.5-5.7-0.2c-0.1-0.4,0.4-1,1.4-1.6
																		c1-0.6,2.6-1.1,4.4-1c1.8,0,3.3,0.6,4.3,1.2C337.6,92.5,338.1,93.1,337.9,93.5z"/>
																</g>
															</g>
														</g>
													</g>
												</g>
											</g>
										</g>
									</g>
								</g>
							</g>
							<g>
								<g>
									<g>
										<g>
											<g>
												<g>
													<g>
														<g>
															<g>
																<g>
																	<path class="st2" d="M364.8,86.5c-0.6,0.7-2.9,0-5.7,0.1c-2.8,0-5.1,0.5-5.7-0.1c-0.2-0.3,0.1-1,1.1-1.6
																		c1-0.6,2.7-1.2,4.6-1.2c1.9,0,3.6,0.5,4.6,1.2C364.8,85.6,365.1,86.2,364.8,86.5z"/>
																</g>
															</g>
														</g>
													</g>
												</g>
											</g>
										</g>
									</g>
								</g>
							</g>
							<g>
								<g>
									<g>
										<g>
											<g>
												<g>
													<g>
														<g>
															<g>
																<path class="st2" d="M366.7,80.7c0,0-5.1-11.3-10.7-13.9c-6.8-3.1-9.5,4.3-15.9,2.7c-6.4-1.6-12.9-4.6-19.3,0.5
																	c-7,5.6-3.6,9.3-3.8,17.4c-1,33-6.8,42.4-8.9,26.9c-0.2-1.7-5-2.9-5.8-10.1c-1.1-9.3-1.7-20.6,0.2-27.2
																	c1.6-5.6,4.7-9.5,10.3-13.9c8.8-6.9,21.2-7.3,29.6-6.7C350.8,57.1,367.2,66.4,366.7,80.7z"/>
															</g>
														</g>
													</g>
												</g>
											</g>
										</g>
									</g>
								</g>
							</g>
							<g>
								<g>
									<g>
										<g>
											<g>
												<g>
													<g>
														<g>
															<g>
																<path class="st7" d="M309.3,113.8c-0.2-2.8-2.7-5-5.5-4.7c-3.4,0.4-7.2,2.4-6.8,9.5c0.7,12.5,13.1,9.2,13.1,8.9
																	C310.2,127.3,309.7,119.1,309.3,113.8z"/>
															</g>
														</g>
													</g>
												</g>
											</g>
										</g>
									</g>
								</g>
							</g>
							<g>
								<g>
									<g>
										<g>
											<g>
												<g>
													<g>
														<g>
															<g>
																<path class="st8" d="M307.2,123c-0.1,0-0.2,0.2-0.6,0.4c-0.3,0.2-1,0.3-1.6,0.1c-1.3-0.4-2.6-2.4-2.8-4.7
																	c-0.1-1.1,0.1-2.2,0.4-3.2c0.3-0.9,0.9-1.6,1.5-1.8c0.7-0.2,1.1,0.2,1.3,0.5c0.2,0.3,0.1,0.6,0.2,0.6
																	c0,0,0.3-0.2,0.1-0.7c-0.1-0.2-0.2-0.5-0.5-0.8c-0.3-0.2-0.8-0.3-1.2-0.3c-1,0.1-1.8,1.1-2.2,2.1
																	c-0.4,1-0.7,2.3-0.6,3.5c0.2,2.5,1.6,4.8,3.5,5.2c0.9,0.2,1.6-0.1,2-0.4C307.2,123.3,307.3,123,307.2,123z"/>
															</g>
														</g>
													</g>
												</g>
											</g>
										</g>
									</g>
								</g>
							</g>
						</g>
						<g>
							<g>
								<g>
									<g>
										<g>
											<g>
												<g>
													<g>
														<path class="st2" d="M309,89.6c1.7,1.1,3.4,2.2,5.4,2.3c2,0.1,4.2-1,4.5-3c0.1-0.9-0.1-1.9,0.4-2.6
															c0.7-0.8,1.9-0.6,3-0.5c3.6,0.3,7.8-3.8,8.6-7.4c1,1.4,3,1.7,4.4,0.8c1.4-0.9,1.9-1.5,3-2.7c1.1-1.3,2.6-2.4,4.2-2.2
															c0.9,0.1,1.8,0.6,2.7,0.5c1.6-0.2,2.4-2.1,2.6-3.8c0.2-1.6,0.4-3.5,1.7-4.5c1.3-0.9,3-0.4,4.5-0.2
															c1.5,0.2,3.5-0.2,3.8-1.7c0.2-0.8-0.2-1.6-0.6-2.3c-2-3-6.3-4.3-9.6-2.8c-1.3-4.1-5.3-7.2-9.6-7.6
															c-4.3-0.4-8.7,2.1-10.7,5.9c-2.7-2.3-6.6-3.3-10-2.4c-3.5,0.9-6.4,3.5-7.7,6.9c-3.1-0.7-6.5,0.5-8.4,3.1
															c-1.9,2.5-2.1,6.2-0.5,8.9c-2.2,1.3-4.1,3.6-4.1,6.2c0,2.6,2.6,5.1,5.1,4.4c-1,2-0.1,4.8,1.9,5.8
															c2,1.1,4.7,0.4,5.9-1.6"/>
													</g>
												</g>
											</g>
										</g>
									</g>
								</g>
							</g>
						</g>
						<g>
							<g>
								<g>
									<g>
										<g>
											<g>
												<g>
													<g>
														<g>
															<path class="st10" d="M348.6,63.2c0,0,0,0.1,0,0.2c0,0.2,0,0.4-0.1,0.7c-0.1,0.6-0.3,1.4-0.9,2.4
																c-0.5,1-1.4,2.1-2.7,3c-1.3,0.9-3.1,1.6-5.1,1.6l0.2-0.3c0.4,1.1,0.3,2.3-0.2,3.5c-0.5,1.1-1.3,2.1-2.1,3.1
																c-0.4,0.5-0.8,1-1.4,1.5c-0.6,0.4-1.3,0.7-2,0.8c-1.4,0.2-3-0.2-4.1-1.3l0.5-0.1c-0.3,2.5-1.6,5-3.8,6.6
																c-1.2,0.9-2.6,1.4-4.1,1.4c-1.4,0-2.8-0.4-4.1-0.8l0.3-0.2c-0.6,1.6-1.6,2.9-2.9,3.9c-1.2,1-2.8,1.6-4.3,1.3
																c-3-0.6-5-3-5.4-5.3l0.3,0.1c-1.4,0.8-3,0.9-4.3,0.7c-1.3-0.2-2.3-0.7-3-1.3c-0.7-0.5-1.2-1.1-1.4-1.5
																c-0.2-0.4-0.3-0.6-0.3-0.6c0.1-0.1,0.4,0.9,1.9,2c0.7,0.5,1.7,1,3,1.1c1.2,0.2,2.7,0,4-0.8l0.2-0.1l0.1,0.3
																c0.4,2.1,2.4,4.4,5.1,4.9c1.4,0.3,2.8-0.3,3.9-1.2c1.2-1,2.1-2.3,2.7-3.7l0.1-0.2l0.2,0.1c1.2,0.4,2.6,0.8,3.9,0.8
																c1.3,0,2.6-0.5,3.8-1.3c2.1-1.5,3.4-3.8,3.6-6.2l0.1-0.6l0.4,0.4c0.9,1,2.3,1.4,3.6,1.2c0.6-0.1,1.2-0.3,1.7-0.7
																c0.5-0.3,0.9-0.9,1.3-1.4c0.8-1,1.6-1.9,2-3c0.5-1,0.6-2.2,0.2-3.1l-0.1-0.3l0.3,0c1.9,0.1,3.6-0.6,4.9-1.4
																c1.3-0.9,2.1-1.9,2.7-2.9C348.6,64.5,348.5,63.2,348.6,63.2z"/>
														</g>
													</g>
												</g>
											</g>
										</g>
									</g>
								</g>
							</g>
						</g>
					</g>
				</g>
			</g>
		</g>
		<path class="st7" d="M258.6,174.1c0,0-47,16.6-60.6,23.4c-10.6,5.3-17.4,24.7-1,32.8c12.2,6,78.2-5.5,78.2-5.5L258.6,174.1z"/>
		<g>
			<g>
				<g>
					<g>
						<path class="st2" d="M402.2,338.7l-119.5-4.5l-4.3,40.7l-4.8,81.6l61,0.3c0-0.3,7.6-45.9,7.6-45.9l3.4-0.9l-0.3,46.8h57.2
							c3-38.7,4.7-71.2,4.8-74.3C408.1,358.3,402.2,338.7,402.2,338.7z"/>
						<g>
							<g>
								<g>
									<g>
										<g>
											<g>
												<g>
													<g>
														<g>
															<g>
																<path class="st11" d="M337.9,385.5c0,0.1,0.6,0.4,1.8,0.9c1.2,0.5,3,1.3,5.3,1.6c1.2,0.2,2.5,0.2,3.9-0.1
																	c1.4-0.3,2.8-1,4-2.1c1.2-1.2,1.9-2.8,2.3-4.4c0.4-1.7,0.6-3.4,0.9-5.2c1.1-7.1,1.7-13.5,2-18.1
																	c0.2-2.3,0.3-4.2,0.3-5.5c0-1.3,0-2,0-2c-0.1,0-0.2,0.7-0.3,2c-0.2,1.5-0.4,3.3-0.6,5.5c-0.5,4.6-1.2,11-2.3,18.1
																	c-0.5,3.5-0.9,7-2.9,9.2c-2.1,2.1-5.1,2.4-7.3,2.2c-2.3-0.2-4.1-0.9-5.3-1.3C338.6,385.7,337.9,385.5,337.9,385.5z"
																	/>
															</g>
														</g>
													</g>
												</g>
											</g>
										</g>
									</g>
								</g>
							</g>
						</g>
						<g>
							<g>
								<g>
									<g>
										<g>
											<g>
												<g>
													<g>
														<g>
															<g>
																<path class="st10" d="M349.3,352.1c0,0-0.3-0.2-0.9-0.2c-0.6,0-1.5,0.2-2.3,0.9c-0.8,0.7-1.7,1.8-1.7,3.4
																	c0,1.6,1.3,3,2.9,3.5c1.6,0.5,3.5,0.1,4.4-1.1c0.9-1.2,0.9-2.7,0.7-3.7c-0.3-1-0.9-1.7-1.4-2.1
																	c-0.5-0.3-0.8-0.4-0.8-0.3c-0.1,0.1,1.2,0.7,1.6,2.6c0.2,0.9,0.1,2.1-0.7,3c-0.7,0.9-2.2,1.2-3.5,0.8
																	c-1.3-0.4-2.3-1.5-2.3-2.7c-0.1-1.2,0.6-2.2,1.2-2.8C347.9,351.9,349.3,352.3,349.3,352.1z"/>
															</g>
														</g>
													</g>
												</g>
											</g>
										</g>
									</g>
								</g>
							</g>
						</g>
						<g>
							<g>
								<g>
									<g>
										<g>
											<g>
												<g>
													<g>
														<g>
															<g>
																<path class="st11" d="M282.7,372.4c0,0.1,0.5,0.1,1.5,0.2c0.9,0.1,2.3,0,4-0.1c3.4-0.3,8-1.3,12.7-3.5
																	c4.7-2.2,8.4-5.1,10.8-7.6c1.2-1.2,2.1-2.2,2.6-3c0.6-0.8,0.8-1.2,0.8-1.2c-0.1-0.1-1.4,1.5-3.9,3.8
																	c-2.4,2.3-6.1,5-10.7,7.2c-4.6,2.2-9.1,3.2-12.4,3.7C284.8,372.3,282.7,372.3,282.7,372.4z"/>
															</g>
														</g>
													</g>
												</g>
											</g>
										</g>
									</g>
								</g>
							</g>
						</g>
					</g>
				</g>
			</g>
		</g>
		<g>
			<g>
				<path class="st6" d="M404.6,332.1c-2.3-5.3-1.9-5.8-1.9-5.8l-6.6-58.1l-6.4-56.5l-5.2-41.9l-29.9-6.4c0,0-3.4,9.5-17.9,9.8
					c-16.6,0.3-26.2-14.6-26.2-14.6l-47.8,10.3l18,123.3l2.2,33.2c0,0-3.6,5.4-3.6,11.1c0,5.8-0.2,9.6-0.2,9.6
					c44.4,12.2,88.4,22.7,128.9,10.9C407.9,357,406.9,337.4,404.6,332.1z"/>
				<g>
					<path class="st6" d="M373.6,167.6c0,0,17.2,1.9,23.3,8.4c6.1,6.5,25.6,38.6,25.6,38.6l-28.4,38.8l-13.1-17.9L373.6,167.6z"/>
				</g>
				<g>
					<g>
						<g>
							<path class="st4" d="M386.7,187.7c0.2,0,3,21.3,6.1,47.7c3.1,26.3,5.4,47.7,5.2,47.7c-0.2,0-3-21.3-6.1-47.7
								C388.8,209.1,386.5,187.7,386.7,187.7z"/>
						</g>
					</g>
				</g>
			</g>
		</g>
		<polygon class="st6" points="262.7,168.9 224.5,185.9 238.3,224.6 275.2,230.4 		"/>
		<g>
			<path class="st2" d="M268,194.6c0.3,0,2.1,15.1,4.1,33.7c2,18.7,3.4,33.8,3.2,33.9c-0.3,0-2.1-15.1-4.1-33.8
				C269.2,209.7,267.8,194.6,268,194.6z"/>
		</g>
		<g class="st9">
			<path d="M277.4,391c20.8-7.5,32.3-22.2,41.6-37.8c9.3-15.6,10.6-37.6,4.7-54.8c0,0-42.9,41.5-43.2,42.4
				C280.2,341.8,277.4,391,277.4,391z"/>
		</g>
		<g class="st9">
			<path d="M335.9,172.6c-0.5,4.2,1.8,8.3,4.7,11.4c2.9,3.1,6.4,5.7,9,9c3,3.8,4.7,8.4,6.4,13c3.5,9.5,7,19,10.5,28.5
				c3,8.2,6.1,16.5,10.8,23.7c4.8,7.3,11.5,13.7,19.8,16.3l-6.3-53.5l-33.3-53.5L335.9,172.6z"/>
		</g>
		<g>
			<g>
				<path class="st7" d="M370.3,173.1c0-0.7,0.5-25.5-1.1-28.2c-1.7-2.7-3-5.2-3.3-7.7c0,0,0.9-1.5-0.7-2.4
					c-1.7-0.9-4.3,1.3-4.3,5.3c-0.1,4,0.4,10.8,0.4,10.8s-18.3-10.4-23.3-10.7c-5-0.3-12.5-1.2-12.9,1.2c-0.4,2.4-0.1,3,2.6,3.9
					c2.6,0.9,6.8,1.6,10.9,2.9c4.1,1.4,6,2.3,6,2.3s-9.3-2.8-11.4,0c-2.1,2.8-1.8,5.2-0.5,6.6c0,0-2.8,1.2-2.5,4.2
					c0.3,3.1,1.7,3.8,1.7,3.8s-2.7,2.1-1.4,4.7c1.3,2.7,4.4,1,7.3,4c2.9,3,10.1,10,12.9,11.6c2.8,1.6,9.2,2.2,9.2,2.2L370.3,173.1z"
					/>
				<g>
					<path class="st8" d="M370.3,173.1c0,0,0,0.1-0.2,0.3c-0.1,0.2-0.3,0.4-0.5,0.7c-0.5,0.7-1.2,1.6-2.1,2.9
						c-1.8,2.5-4.5,6.2-7.8,10.8l0,0.1l-0.1,0c-1.3-0.1-2.6-0.3-3.9-0.6c-1.4-0.3-2.8-0.6-4.2-1.1c-0.7-0.3-1.4-0.7-2-1.1
						c-0.6-0.4-1.3-1-1.9-1.5c-1.2-1-2.5-2.1-3.8-3.3c-1.3-1.2-2.5-2.4-3.8-3.7c-0.6-0.6-1.3-1.3-2-1.9c-0.7-0.7-1.3-1.3-2.1-1.8
						c-0.8-0.5-1.7-0.7-2.7-0.9c-0.9-0.2-2-0.4-2.7-1.3c-0.7-0.8-1-2-0.7-3c0.3-1.1,0.9-1.9,1.8-2.6l0,0.4c-0.7-0.5-1.1-1.2-1.4-2
						c-0.3-0.8-0.4-1.5-0.4-2.4c0-0.8,0.2-1.7,0.7-2.4c0.5-0.7,1.2-1.3,2-1.6l-0.1,0.4c-1.2-1.2-1.3-3-0.8-4.5
						c0.3-0.8,0.6-1.5,1.1-2.1c0.2-0.3,0.6-0.7,0.9-0.9c0.4-0.2,0.8-0.3,1.2-0.4c1.6-0.3,3.3-0.2,4.9,0c1.6,0.2,3.2,0.6,4.8,1
						l-0.2,0.4c-2.4-1.1-5-2-7.6-2.8c-2.7-0.8-5.4-1.3-8.2-2.1c-1-0.3-2-0.6-2.9-1.2c-0.5-0.3-0.8-0.8-0.9-1.4
						c-0.1-0.6,0-1.1,0.1-1.6c0-0.2,0.1-0.5,0.2-0.8c0.2-0.3,0.4-0.4,0.6-0.6c0.5-0.3,1-0.4,1.5-0.5c1-0.2,2-0.2,3-0.2
						c2,0,4,0.2,5.9,0.3c1,0.1,1.9,0.1,2.9,0.3c0.5,0.1,0.9,0.3,1.4,0.4l1.4,0.5c3.6,1.4,7,3,10.2,4.7c3.3,1.7,6.4,3.3,9.4,5
						l-0.3,0.2c-0.2-3.9-0.5-7.7-0.4-11.3c0.1-1.8,0.8-3.7,2.3-4.7c0.4-0.2,0.8-0.4,1.3-0.4c0.5,0,0.9,0.2,1.3,0.4
						c0.4,0.3,0.7,0.7,0.7,1.1c0.1,0.5,0,0.9-0.3,1.3l0-0.1c0.4,2.8,1.8,5.2,3.1,7.3c0.2,0.3,0.4,0.6,0.4,0.9
						c0.1,0.3,0.2,0.6,0.2,0.9c0.1,0.6,0.2,1.2,0.3,1.8c0.1,1.2,0.2,2.4,0.3,3.5c0.2,4.5,0.2,8.4,0.2,11.6c0,3.2-0.1,5.7-0.1,7.3
						c0,0.8,0,1.5-0.1,1.9C370.4,172.9,370.3,173.1,370.3,173.1s0-0.2,0-0.7c0-0.4,0-1.1,0-1.9c0-1.7,0-4.2,0-7.3
						c0-3.2-0.1-7.1-0.3-11.6c-0.1-1.1-0.1-2.3-0.3-3.5c-0.1-0.6-0.1-1.2-0.3-1.8c-0.1-0.6-0.2-1.2-0.6-1.7
						c-1.3-2.2-2.7-4.6-3.1-7.5l0-0.1l0-0.1c0.2-0.3,0.3-0.7,0.2-1.1c-0.1-0.4-0.3-0.7-0.6-0.9c-0.6-0.5-1.5-0.4-2.1,0
						c-1.4,0.9-2,2.7-2.2,4.4c-0.1,3.6,0.2,7.4,0.4,11.3l0,0.4l-0.3-0.2c-3-1.7-6.1-3.4-9.4-5c-3.2-1.6-6.6-3.3-10.2-4.6l-1.4-0.5
						c-0.5-0.1-0.9-0.3-1.4-0.4c-0.9-0.2-1.9-0.2-2.9-0.3c-2-0.1-3.9-0.3-5.9-0.3c-1,0-2,0-2.9,0.2c-0.9,0.2-2,0.5-2,1.5
						c-0.1,0.5-0.1,1-0.1,1.4c0.1,0.5,0.3,0.8,0.7,1.1c0.8,0.5,1.8,0.8,2.8,1.1c2.7,0.8,5.5,1.3,8.2,2.1c2.7,0.8,5.3,1.7,7.7,2.9
						l-0.2,0.4c-1.6-0.4-3.2-0.8-4.8-1c-1.6-0.2-3.2-0.3-4.7,0c-0.7,0.2-1.4,0.5-1.8,1.1c-0.4,0.6-0.8,1.3-1,2
						c-0.5,1.4-0.3,3.1,0.7,4.1l0.2,0.2l-0.3,0.1c-0.7,0.3-1.3,0.9-1.8,1.5c-0.4,0.6-0.7,1.4-0.6,2.2c0,0.8,0.2,1.5,0.4,2.2
						c0.2,0.7,0.6,1.4,1.2,1.7l0.3,0.2l-0.2,0.2c-0.8,0.6-1.4,1.5-1.6,2.4c-0.2,0.9,0,1.9,0.6,2.6c0.6,0.7,1.6,1,2.5,1.2
						c0.9,0.2,1.9,0.5,2.8,1c0.9,0.5,1.6,1.2,2.2,1.9c0.7,0.7,1.3,1.3,1.9,1.9c1.3,1.3,2.6,2.5,3.8,3.7c1.3,1.2,2.5,2.3,3.7,3.3
						c1.2,1,2.4,2,3.8,2.5c1.4,0.5,2.8,0.9,4.1,1.1c1.4,0.3,2.7,0.5,3.9,0.6l-0.1,0.1c3.4-4.6,6.1-8.2,7.9-10.7
						c0.9-1.2,1.6-2.2,2.1-2.8c0.2-0.3,0.4-0.5,0.6-0.7C370.3,173.2,370.3,173.1,370.3,173.1z"/>
				</g>
			</g>
			<path class="st7" d="M429.6,231c-1.8-3.5-6-10.8-7.9-15.2l-13.1,4.8c0,0-37-50-38.2-50s-17.3,14.9-17.3,14.9
				c0.7,0.7,34.1,77.2,46.8,85.4s22.3,13.5,29.2,1.7C436,260.7,437.7,246.4,429.6,231z"/>
			<g>
				<path class="st8" d="M425.4,243c0,0-0.2-0.3-0.6-1c-0.4-0.6-0.9-1.6-1.6-2.7c-1.4-2.2-3.4-5.3-5.8-8.5c-2.4-3.2-4.8-5.9-6.5-7.9
					c-0.8-0.9-1.5-1.7-2-2.4c-0.5-0.6-0.7-0.9-0.7-0.9c0,0,0.3,0.3,0.8,0.8c0.5,0.5,1.3,1.3,2.2,2.3c1.8,1.9,4.2,4.7,6.7,7.9
					c2.5,3.2,4.4,6.3,5.7,8.6c0.6,1.2,1.1,2.1,1.5,2.8C425.2,242.6,425.4,243,425.4,243z"/>
			</g>
		</g>
		<g>
			<path class="st2" d="M350,131.6c-0.3,0.2-1.7-1.2-3.9-1.9c-2.2-0.8-4.1-0.6-4.2-1c0-0.2,0.4-0.5,1.3-0.7c0.9-0.2,2.1-0.1,3.4,0.3
				c1.3,0.5,2.3,1.3,2.8,1.9C350,130.9,350.2,131.4,350,131.6z"/>
		</g>
		<g>
			<path class="st2" d="M383.4,331.8c0,0-0.1,0.1-0.5,0.3c-0.3,0.2-0.8,0.4-1.4,0.7c-1.2,0.5-3.1,1.1-5.4,1.5
				c-2.3,0.3-5.2,0.4-8.3,0c-3.1-0.4-6.5-1.2-9.9-2.2c-6.9-2.1-13-4.4-17.3-6.2c-2.2-0.9-3.9-1.7-5.1-2.2c-0.6-0.3-1-0.5-1.4-0.6
				c-0.3-0.2-0.5-0.2-0.5-0.3c0,0,0.2,0,0.5,0.2c0.4,0.1,0.8,0.3,1.4,0.6c1.3,0.5,3,1.2,5.2,2.1c4.4,1.7,10.5,4,17.4,6.1
				c3.4,1,6.8,1.8,9.8,2.2c3.1,0.4,5.9,0.4,8.2,0.1c2.3-0.3,4.2-0.8,5.4-1.3C382.8,332,383.4,331.7,383.4,331.8z"/>
		</g>
	</g>
	<g>
		<g>
			<path class="st3" d="M293,236.4c-16.7-11.2-36.6-15.3-49.6-15.3c-12.2,0-30.1,1.9-46.4,11.1c-10.1,5.7-18.1,13.5-23.9,23.1
				c-6.9,11.4-10.6,25.5-11.1,42c-0.1,2.5,0.8,4.8,2.6,6.6c1.7,1.8,4.1,2.8,6.5,2.8l32,0c4.5,0,8.4-3.4,9-7.8
				c1.4-10,7.4-26.9,31.3-27.3c18.2-0.3,25.7,12.9,28.1,18.6c3.9,9.3,2.9,20.2-2.7,29.4c-8.5,14-24.2,16.2-32.7,16.2
				c-9.9,0-17.9,8-17.9,17.8l0,34.4c0,5,4.1,9.1,9.1,9.1l31.2,0c5,0,9.1-4.1,9.1-9.1l0-7.2c0-0.2,0.1-0.3,0.3-0.4
				c7.1-2.5,20.7-8.4,33.1-20.7c15.7-15.6,23.7-35.8,23.7-60C324.7,265,307.4,246.1,293,236.4z"/>
			<path class="st3" d="M244.4,405.6l-2.7,0c-13,0-23.6,10.6-23.6,23.6s10.6,23.6,23.6,23.6l2.7,0c13,0,23.6-10.6,23.6-23.6
				C268.1,416.2,257.5,405.6,244.4,405.6z"/>
		</g>
		<g class="st9">
			<path d="M323.5,277.5c-0.4-3.5-1.3-6.9-2.6-10.1c-6.2-15.6-20.9-26.2-37.5-28.1l-80.4-9.1c8.7,8.9,20.2,10.7,32.3,13.8
				c12.1,3.1,25.1,7.8,37.3,10.4c3.9,0.8,8,1.9,11,4.5c3,2.5,4.6,6.3,6.2,9.8c2.3,5.3,4.6,10.6,7,15.9c2.7,6.1,6.2,12.9,13.3,13.3
				c2.9,0.2,5.7-0.9,7.9-2.8C323.2,290.8,324.2,283.9,323.5,277.5z"/>
		</g>
		<g>
			<path class="st7" d="M322.3,256c-0.6-1.1-12.8-16-18.9-21.8c-3.9-3.7-9.8-6.3-13.5-7.7c0,0-61.2-22.1-65.4-24.2L197,230.3
				c9.6,2.7,74.5,18.3,90.5,21.8c2.8,3.3,5.6,5.9,5.6,5.9l4.7,10.9c0,0,0.5,4,0.2,8.3c-0.3,4.3,3.1,2.6,3.1,2.6s-0.2,2.7,0.1,6.5
				c0,0,0,0.1,0,0.1c0.2,2.9,4.3,3.2,5.2,0.5l3.2-9.9c0,0-0.4,9-0.6,14c0,0.9,0.1,1.7,0.4,2.3c1.2,2.6,5.1,2.2,5.8-0.7l3.7-15.6
				l-1.2-9.6l3.1,8.7c0,0,0.9,4.7,0.7,11.2c-0.1,2.6,0.8,3.7,1.9,4.1c1.8,0.7,3.7-0.8,3.9-2.7l1.2-14.5
				C328.5,274.4,323,257.1,322.3,256z"/>
			<g>
				<path class="st8" d="M220.5,201.1c0-0.1,1.8,0.2,4.5,0.9c2.7,0.8,6.4,2,10.5,3.6c4,1.6,7.6,3.1,10.2,4.2
					c2.6,1.1,4.2,1.8,4.2,1.9c0,0.1-1.7-0.4-4.4-1.3c-2.7-0.9-6.3-2.4-10.3-4c-4-1.6-7.6-3-10.3-3.9
					C222.2,201.8,220.5,201.3,220.5,201.1z"/>
			</g>
		</g>
	</g>
</g>
</svg>
