<?xml version="1.0" encoding="utf-8"?>
<!-- Generator: Adobe Illustrator 28.3.0, SVG Export Plug-In . SVG Version: 6.00 Build 0)  -->
<svg version="1.1" id="Layer_1" xmlns="http://www.w3.org/2000/svg" xmlns:xlink="http://www.w3.org/1999/xlink" x="0px" y="0px"
	 viewBox="0 0 149.2 125.2" style="enable-background:new 0 0 149.2 125.2;" xml:space="preserve">
<style type="text/css">
	.st0{fill:#EBEBEB;}
	.st1{fill:#E0E0E0;}
	.st2{fill:#1B1B1B;}
	.st3{fill:#FFFFFF;}
	.st4{fill:#263238;}
	.st5{fill:#5F4099;}
	.st6{fill:#F1AB1F;}
	.st7{fill:#FBBF9E;}
	.st8{fill:#F7996E;}
	.st9{opacity:0.3;}
	.st10{fill:#455B64;}
	.st11{fill:#606161;}
	.st12{fill:#4C4C4D;}
	.st13{fill:#A36958;}
	.st14{opacity:0.6;}
	.st15{fill:none;stroke:#778189;stroke-miterlimit:10;}
	.st16{fill:#F5F5F5;}
	.st17{fill-rule:evenodd;clip-rule:evenodd;fill:#5F4099;stroke:#5F4099;stroke-miterlimit:10;}
</style>
<g>
	<path class="st5" d="M96.8,71.8C79.3,71.7,65,57.5,65,40c0-0.8,0-1.7,0.1-2.5c0.1-1.4,1.4-2.4,2.8-2.3c1.4,0.1,2.4,1.3,2.3,2.7
		c-0.1,0.7-0.1,1.4-0.1,2.1c0,14.7,12,26.7,26.7,26.6c14.7,0,26.7-12,26.6-26.7c0-1.1-0.1-2.2-0.2-3.4c0,0,0,0,0,0
		c-0.3-2.2-0.9-4.4-1.7-6.5c0,0,0-0.1,0-0.1C116,16.3,100.5,9.7,86.8,15.2c-4.4,1.8-8.3,4.7-11.2,8.5c-0.8,1.1-2.4,1.4-3.6,0.5
		s-1.4-2.4-0.5-3.6c0,0,0-0.1,0.1-0.1C82.3,6.7,102.2,4,116.1,14.7c4.5,3.4,8,8,10.1,13.2c0,0,0,0.1,0,0.1c1,2.5,1.7,5.2,2.1,7.9v0
		c0.2,1.3,0.3,2.7,0.3,4.1C128.6,57.5,114.4,71.7,96.8,71.8L96.8,71.8z"/>
	<path class="st5" d="M22.5,15.2c-1.4,0-2.6-1.1-2.6-2.5s1.1-2.6,2.5-2.6c4.3-0.2,9.7-0.8,11-1.3c9.8-3.9,34.2-12,48.5-3.1
		c0.2,0.1,1.3,0.7,7.7,4c1.3,0.6,1.7,2.2,1.1,3.5s-2.2,1.7-3.5,1.1l0,0c-7.5-3.9-7.8-4.1-8-4.2c-12.7-7.9-36.9,0.7-44,3.5
		c-2.7,1.1-11,1.5-12.6,1.6L22.5,15.2z"/>
	<path class="st5" d="M27.8,46.9h-5.2c-1.4,0-2.6-1.1-2.6-2.6s1.1-2.6,2.6-2.6h5.2c4.7,0,9.3-1.1,13.5-3.2
		c4.5-2.2,17.5-3.3,19.3-3.4L76,34.9c2.7,0,4.8-2.2,4.7-4.9c0,0,0,0,0,0v-0.6c0-2.7-2.2-4.8-4.9-4.7c0,0,0,0,0,0l-20,0.3h0
		c-1.4,0-2.6-1.1-2.6-2.5c0-1.4,1.1-2.6,2.5-2.6l20-0.3h0.2c5.4,0,9.8,4.3,9.9,9.8V30c0.1,5.5-4.3,10-9.8,10.1l-15.5,0.3
		c-2.5,0-14,1.3-17.1,2.9C38.6,45.6,33.2,46.9,27.8,46.9L27.8,46.9z"/>
	<path class="st5" d="M22.5,57h-20C1.1,57,0,55.8,0,54.4V2.6C0,1.1,1.1,0,2.6,0h20c1.4,0,2.6,1.1,2.6,2.6v51.8
		C25.1,55.8,24,57,22.5,57z M5.1,51.8H20V5.1H5.1V51.8z"/>
	<path class="st5" d="M12.6,48.7c-1.4,0-2.6-1.1-2.6-2.6V34.5c0-1.4,1.1-2.6,2.6-2.6s2.6,1.1,2.6,2.6v11.7
		C15.1,47.6,14,48.7,12.6,48.7z"/>
	<path class="st5" d="M83.8,123.5c-6,0-11.8-1.1-16.5-4c-1.3-0.7-23.3-12.1-37.9-19.5c-5-2.7-6.9-8.9-4.2-13.9
		c2.6-4.9,8.6-6.8,13.5-4.4l29.1,14.8c1.3,0.6,1.8,2.2,1.1,3.4c-0.6,1.3-2.2,1.8-3.4,1.1L36.4,86.3c-2.5-1.3-5.6-0.3-6.9,2.2
		c-1.3,2.5-0.3,5.6,2.2,6.9c6.2,3.2,37.1,19,38.3,19.7c12.7,7.9,36.8-0.7,44-3.5c2.7-1.1,11-1.5,12.6-1.6c1.4-0.1,2.6,1,2.7,2.4
		c0.1,1.4-1,2.6-2.4,2.7l0,0c-4.3,0.2-9.7,0.8-11,1.3C109.2,119,96,123.5,83.8,123.5L83.8,123.5z"/>
	<path class="st5" d="M73.3,105.6c-5.4,0-9.8-4.3-9.9-9.8v-0.6c-0.1-5.5,4.3-10,9.8-10.1l15.5-0.3c2.5,0,14-1.3,17.1-2.9
		c4.9-2.4,10.3-3.7,15.7-3.7h5.2c1.4,0,2.6,1.1,2.6,2.6s-1.1,2.6-2.6,2.6h-5.2c-4.7,0-9.3,1.1-13.5,3.2c-4.5,2.2-17.5,3.3-19.3,3.4
		l-15.5,0.3c-2.7,0-4.8,2.2-4.7,4.9c0,0,0,0,0,0v0.6c0.1,2.7,2.2,4.8,4.9,4.7l20-0.3c1.4,0,2.6,1.1,2.6,2.5c0,1.4-1.1,2.6-2.5,2.6
		l-20,0.3L73.3,105.6z"/>
	<path class="st5" d="M146.6,125.2h-20c-1.4,0-2.6-1.1-2.6-2.6V70.8c0-1.4,1.1-2.6,2.6-2.6h20c1.4,0,2.6,1.1,2.6,2.6v51.8
		C149.2,124.1,148.1,125.2,146.6,125.2L146.6,125.2z M129.2,120.1h14.9V73.4h-14.9V120.1z"/>
	<path class="st5" d="M136.6,93.3c-1.4,0-2.6-1.1-2.6-2.6V79.1c0-1.4,1.1-2.6,2.6-2.6s2.6,1.1,2.6,2.6v11.7
		C139.2,92.2,138.1,93.3,136.6,93.3z"/>
	<path id="path2" class="st17" d="M100.5,30.3h-7.1c-0.8,0-1.4-0.6-1.4-1.4c0-0.8,0.6-1.4,1.4-1.4h17c0.8,0,1.4,0.6,1.4,1.4
		c0,0.8-0.6,1.4-1.4,1.4h-4.3c0.6,0.8,1.1,1.8,1.3,2.8h3c0.8,0,1.4,0.6,1.4,1.4s-0.6,1.4-1.4,1.4h-3c-0.7,3.2-3.5,5.7-6.9,5.7h-0.8
		l8.9,8.9c0.6,0.6,0.6,1.5,0,2c-0.6,0.6-1.5,0.6-2,0L95.3,41.3c-0.4-0.4-0.5-1-0.3-1.5c0.2-0.5,0.7-0.9,1.3-0.9h4.3
		c1.9,0,3.4-1.2,4-2.8H93.4c-0.8,0-1.4-0.6-1.4-1.4s0.6-1.4,1.4-1.4h11.1C104,31.5,102.4,30.3,100.5,30.3L100.5,30.3z"/>
</g>
</svg>
